<svg xmlns="http://www.w3.org/2000/svg" xmlns:xlink="http://www.w3.org/1999/xlink" width="500" zoomAndPan="magnify" viewBox="0 0 375 374.999991" height="500" preserveAspectRatio="xMidYMid meet" version="1.0"><defs><g/><clipPath id="c62f05d1b8"><path d="M 158.765625 148.648438 L 217.359375 148.648438 L 217.359375 181.929688 L 158.765625 181.929688 Z M 158.765625 148.648438 " clip-rule="nonzero"/></clipPath><clipPath id="29a9643400"><path d="M 0.765625 0.648438 L 59.359375 0.648438 L 59.359375 33.929688 L 0.765625 33.929688 Z M 0.765625 0.648438 " clip-rule="nonzero"/></clipPath><clipPath id="d38c627f7f"><rect x="0" width="60" y="0" height="34"/></clipPath></defs><rect x="-37.5" width="450" fill="#ffffff" y="-37.499999" height="449.999989" fill-opacity="1"/><rect x="-37.5" width="450" fill="#e4dccc" y="-37.499999" height="449.999989" fill-opacity="1"/><g fill="#664d43" fill-opacity="1"><g transform="translate(63.207408, 203.874361)"><g><path d="M 39.484375 -5.421875 C 40.046875 -4.003906 40.691406 -2.972656 41.421875 -2.328125 C 42.148438 -1.679688 42.863281 -1.335938 43.5625 -1.296875 L 43.5625 0 C 40.976562 -0.125 37.703125 -0.1875 33.734375 -0.1875 C 29.335938 -0.1875 26.0625 -0.125 23.90625 0 L 23.90625 -1.296875 C 25.539062 -1.378906 26.703125 -1.582031 27.390625 -1.90625 C 28.085938 -2.226562 28.4375 -2.800781 28.4375 -3.625 C 28.4375 -4.394531 28.175781 -5.425781 27.65625 -6.71875 L 23.78125 -17.3125 L 9.6875 -17.3125 L 8.015625 -12.859375 C 6.804688 -9.753906 6.203125 -7.363281 6.203125 -5.6875 C 6.203125 -4.09375 6.6875 -2.984375 7.65625 -2.359375 C 8.625 -1.734375 10.054688 -1.378906 11.953125 -1.296875 L 11.953125 0 C 9.023438 -0.125 6.351562 -0.1875 3.9375 -0.1875 C 1.957031 -0.1875 0.320312 -0.125 -0.96875 0 L -0.96875 -1.296875 C 1.144531 -1.679688 3 -3.941406 4.59375 -8.078125 L 19.328125 -45.890625 C 19.796875 -45.835938 20.546875 -45.8125 21.578125 -45.8125 C 22.617188 -45.8125 23.351562 -45.835938 23.78125 -45.890625 Z M 23.328125 -18.609375 L 16.9375 -36.0625 L 10.203125 -18.609375 Z M 23.328125 -18.609375 "/></g></g></g><g fill="#664d43" fill-opacity="1"><g transform="translate(110.378189, 203.874361)"><g><path d="M 22.171875 -45.75 C 30.566406 -45.75 36.851562 -43.84375 41.03125 -40.03125 C 45.21875 -36.21875 47.3125 -30.671875 47.3125 -23.390625 C 47.3125 -18.691406 46.285156 -14.585938 44.234375 -11.078125 C 42.191406 -7.566406 39.238281 -4.84375 35.375 -2.90625 C 31.519531 -0.96875 26.921875 0 21.578125 0 L 17.578125 -0.0625 C 15.078125 -0.144531 13.269531 -0.1875 12.15625 -0.1875 C 7.71875 -0.1875 4.398438 -0.125 2.203125 0 L 2.203125 -1.296875 C 3.617188 -1.378906 4.660156 -1.550781 5.328125 -1.8125 C 5.992188 -2.070312 6.445312 -2.566406 6.6875 -3.296875 C 6.925781 -4.023438 7.046875 -5.207031 7.046875 -6.84375 L 7.046875 -38.90625 C 7.046875 -40.539062 6.925781 -41.722656 6.6875 -42.453125 C 6.445312 -43.191406 5.992188 -43.6875 5.328125 -43.9375 C 4.660156 -44.195312 3.617188 -44.375 2.203125 -44.46875 L 2.203125 -45.75 C 4.003906 -45.625 6.609375 -45.5625 10.015625 -45.5625 L 12.015625 -45.5625 L 14.609375 -45.625 C 18.140625 -45.707031 20.660156 -45.75 22.171875 -45.75 Z M 22.109375 -44.59375 C 20.765625 -44.59375 19.757812 -44.441406 19.09375 -44.140625 C 18.425781 -43.835938 17.960938 -43.296875 17.703125 -42.515625 C 17.441406 -41.742188 17.3125 -40.582031 17.3125 -39.03125 L 17.3125 -6.71875 C 17.3125 -5.164062 17.441406 -4 17.703125 -3.21875 C 17.960938 -2.445312 18.425781 -1.910156 19.09375 -1.609375 C 19.757812 -1.304688 20.785156 -1.15625 22.171875 -1.15625 C 27.378906 -1.15625 31.082031 -2.972656 33.28125 -6.609375 C 35.476562 -10.253906 36.578125 -15.765625 36.578125 -23.140625 C 36.578125 -30.503906 35.445312 -35.921875 33.1875 -39.390625 C 30.925781 -42.859375 27.234375 -44.59375 22.109375 -44.59375 Z M 22.109375 -44.59375 "/></g></g></g><g fill="#664d43" fill-opacity="1"><g transform="translate(164.592258, 203.874361)"><g><path d="M 25.65625 -46.65625 C 30.21875 -46.65625 34.210938 -45.726562 37.640625 -43.875 C 41.066406 -42.019531 43.726562 -39.335938 45.625 -35.828125 C 47.519531 -32.316406 48.46875 -28.128906 48.46875 -23.265625 C 48.46875 -18.523438 47.5 -14.320312 45.5625 -10.65625 C 43.625 -7 40.921875 -4.15625 37.453125 -2.125 C 33.984375 -0.101562 30.03125 0.90625 25.59375 0.90625 C 21.019531 0.90625 17.019531 -0.0195312 13.59375 -1.875 C 10.175781 -3.726562 7.519531 -6.410156 5.625 -9.921875 C 3.726562 -13.429688 2.78125 -17.617188 2.78125 -22.484375 C 2.78125 -27.222656 3.75 -31.421875 5.6875 -35.078125 C 7.625 -38.742188 10.328125 -41.585938 13.796875 -43.609375 C 17.265625 -45.640625 21.21875 -46.65625 25.65625 -46.65625 Z M 25.390625 -45.5 C 23.023438 -45.5 20.9375 -44.539062 19.125 -42.625 C 17.320312 -40.707031 15.929688 -38.023438 14.953125 -34.578125 C 13.984375 -31.128906 13.5 -27.1875 13.5 -22.75 C 13.5 -18.269531 14.046875 -14.328125 15.140625 -10.921875 C 16.242188 -7.515625 17.734375 -4.882812 19.609375 -3.03125 C 21.484375 -1.1875 23.5625 -0.265625 25.84375 -0.265625 C 28.21875 -0.265625 30.304688 -1.222656 32.109375 -3.140625 C 33.921875 -5.054688 35.3125 -7.734375 36.28125 -11.171875 C 37.25 -14.617188 37.734375 -18.5625 37.734375 -23 C 37.734375 -27.488281 37.179688 -31.429688 36.078125 -34.828125 C 34.984375 -38.234375 33.5 -40.863281 31.625 -42.71875 C 29.757812 -44.570312 27.679688 -45.5 25.390625 -45.5 Z M 25.390625 -45.5 "/></g></g></g><g fill="#664d43" fill-opacity="1"><g transform="translate(219.904824, 203.874361)"><g><path d="M 46.015625 -2.84375 C 44.847656 -1.507812 43.597656 -0.550781 42.265625 0.03125 C 40.929688 0.613281 39.316406 0.90625 37.421875 0.90625 C 34.921875 0.90625 32.945312 0.378906 31.5 -0.671875 C 30.0625 -1.734375 29.125 -3.535156 28.6875 -6.078125 L 27.53125 -12.53125 C 26.96875 -15.675781 26.285156 -17.992188 25.484375 -19.484375 C 24.691406 -20.972656 23.367188 -21.71875 21.515625 -21.71875 L 17.3125 -21.71875 L 17.3125 -6.84375 C 17.3125 -5.207031 17.429688 -4.023438 17.671875 -3.296875 C 17.910156 -2.566406 18.351562 -2.070312 19 -1.8125 C 19.644531 -1.550781 20.703125 -1.378906 22.171875 -1.296875 L 22.171875 0 C 19.835938 -0.125 16.582031 -0.1875 12.40625 -0.1875 C 7.800781 -0.1875 4.398438 -0.125 2.203125 0 L 2.203125 -1.296875 C 3.617188 -1.378906 4.660156 -1.550781 5.328125 -1.8125 C 5.992188 -2.070312 6.445312 -2.566406 6.6875 -3.296875 C 6.925781 -4.023438 7.046875 -5.207031 7.046875 -6.84375 L 7.046875 -38.90625 C 7.046875 -40.539062 6.925781 -41.722656 6.6875 -42.453125 C 6.445312 -43.191406 5.992188 -43.6875 5.328125 -43.9375 C 4.660156 -44.195312 3.617188 -44.375 2.203125 -44.46875 L 2.203125 -45.75 C 4.398438 -45.625 7.671875 -45.5625 12.015625 -45.5625 L 19.1875 -45.625 C 20.050781 -45.664062 21.046875 -45.6875 22.171875 -45.6875 C 28.109375 -45.6875 32.570312 -44.71875 35.5625 -42.78125 C 38.5625 -40.84375 40.0625 -38.0625 40.0625 -34.4375 C 40.0625 -31.382812 38.941406 -28.691406 36.703125 -26.359375 C 34.460938 -24.035156 30.757812 -22.570312 25.59375 -21.96875 C 29.46875 -21.625 32.351562 -20.785156 34.25 -19.453125 C 36.144531 -18.117188 37.375 -16.113281 37.9375 -13.4375 L 39.421875 -6.78125 C 39.765625 -5.0625 40.160156 -3.851562 40.609375 -3.15625 C 41.066406 -2.46875 41.703125 -2.125 42.515625 -2.125 C 43.035156 -2.175781 43.476562 -2.304688 43.84375 -2.515625 C 44.207031 -2.734375 44.628906 -3.101562 45.109375 -3.625 Z M 21.328125 -44.46875 C 20.160156 -44.46875 19.304688 -44.316406 18.765625 -44.015625 C 18.234375 -43.710938 17.859375 -43.171875 17.640625 -42.390625 C 17.421875 -41.617188 17.3125 -40.457031 17.3125 -38.90625 L 17.3125 -23 L 20.09375 -23 C 23.625 -23 26.046875 -23.9375 27.359375 -25.8125 C 28.679688 -27.6875 29.34375 -30.328125 29.34375 -33.734375 C 29.34375 -37.265625 28.71875 -39.9375 27.46875 -41.75 C 26.21875 -43.5625 24.171875 -44.46875 21.328125 -44.46875 Z M 21.328125 -44.46875 "/></g></g></g><g fill="#664d43" fill-opacity="1"><g transform="translate(268.691052, 203.874361)"><g><path d="M 39.484375 -5.421875 C 40.046875 -4.003906 40.691406 -2.972656 41.421875 -2.328125 C 42.148438 -1.679688 42.863281 -1.335938 43.5625 -1.296875 L 43.5625 0 C 40.976562 -0.125 37.703125 -0.1875 33.734375 -0.1875 C 29.335938 -0.1875 26.0625 -0.125 23.90625 0 L 23.90625 -1.296875 C 25.539062 -1.378906 26.703125 -1.582031 27.390625 -1.90625 C 28.085938 -2.226562 28.4375 -2.800781 28.4375 -3.625 C 28.4375 -4.394531 28.175781 -5.425781 27.65625 -6.71875 L 23.78125 -17.3125 L 9.6875 -17.3125 L 8.015625 -12.859375 C 6.804688 -9.753906 6.203125 -7.363281 6.203125 -5.6875 C 6.203125 -4.09375 6.6875 -2.984375 7.65625 -2.359375 C 8.625 -1.734375 10.054688 -1.378906 11.953125 -1.296875 L 11.953125 0 C 9.023438 -0.125 6.351562 -0.1875 3.9375 -0.1875 C 1.957031 -0.1875 0.320312 -0.125 -0.96875 0 L -0.96875 -1.296875 C 1.144531 -1.679688 3 -3.941406 4.59375 -8.078125 L 19.328125 -45.890625 C 19.796875 -45.835938 20.546875 -45.8125 21.578125 -45.8125 C 22.617188 -45.8125 23.351562 -45.835938 23.78125 -45.890625 Z M 23.328125 -18.609375 L 16.9375 -36.0625 L 10.203125 -18.609375 Z M 23.328125 -18.609375 "/></g></g></g><g clip-path="url(#c62f05d1b8)"><g transform="matrix(1, 0, 0, 1, 158, 148)"><g clip-path="url(#d38c627f7f)"><g clip-path="url(#29a9643400)"><path fill="#e4dccc" d="M 0.765625 0.648438 L 59.398438 0.648438 L 59.398438 33.929688 L 0.765625 33.929688 Z M 0.765625 0.648438 " fill-opacity="1" fill-rule="nonzero"/></g></g></g></g><g fill="#664d43" fill-opacity="1"><g transform="translate(140.066318, 230.264867)"><g><path d="M 8.015625 -2.78125 C 8.015625 -2.132812 7.832031 -1.59375 7.46875 -1.15625 C 7.101562 -0.71875 6.660156 -0.414062 6.140625 -0.25 C 5.617188 -0.0820312 5.046875 0 4.421875 0 L 0.921875 0 L 0.921875 -9.171875 C 0.921875 -9.179688 0.90625 -9.25 0.875 -9.375 C 0.84375 -9.507812 0.804688 -9.644531 0.765625 -9.78125 C 0.734375 -9.914062 0.71875 -9.992188 0.71875 -10.015625 L 4.28125 -10.015625 C 4.707031 -10.015625 5.097656 -9.976562 5.453125 -9.90625 C 5.816406 -9.832031 6.160156 -9.710938 6.484375 -9.546875 C 6.816406 -9.390625 7.078125 -9.148438 7.265625 -8.828125 C 7.453125 -8.503906 7.546875 -8.117188 7.546875 -7.671875 C 7.546875 -7.097656 7.347656 -6.601562 6.953125 -6.1875 C 6.566406 -5.78125 6.085938 -5.535156 5.515625 -5.453125 C 6.210938 -5.335938 6.800781 -5.035156 7.28125 -4.546875 C 7.769531 -4.054688 8.015625 -3.46875 8.015625 -2.78125 Z M 5.5625 -7.40625 C 5.5625 -7.832031 5.4375 -8.144531 5.1875 -8.34375 C 4.9375 -8.550781 4.597656 -8.65625 4.171875 -8.65625 L 2.796875 -8.65625 L 2.796875 -6.09375 L 4.21875 -6.09375 C 4.601562 -6.09375 4.921875 -6.210938 5.171875 -6.453125 C 5.429688 -6.703125 5.5625 -7.019531 5.5625 -7.40625 Z M 6.03125 -3 C 6.03125 -3.570312 5.816406 -4.003906 5.390625 -4.296875 C 4.972656 -4.597656 4.46875 -4.75 3.875 -4.75 L 2.796875 -4.75 L 2.796875 -1.359375 L 4.296875 -1.359375 C 4.816406 -1.359375 5.234375 -1.503906 5.546875 -1.796875 C 5.867188 -2.085938 6.03125 -2.488281 6.03125 -3 Z M 6.03125 -3 "/></g></g></g><g fill="#664d43" fill-opacity="1"><g transform="translate(152.448058, 230.264867)"><g><path d="M 9.8125 -4.984375 C 9.8125 -3.484375 9.378906 -2.25 8.515625 -1.28125 C 7.648438 -0.320312 6.472656 0.15625 4.984375 0.15625 C 3.503906 0.15625 2.347656 -0.328125 1.515625 -1.296875 C 0.679688 -2.273438 0.265625 -3.515625 0.265625 -5.015625 C 0.265625 -6.523438 0.679688 -7.757812 1.515625 -8.71875 C 2.359375 -9.675781 3.519531 -10.15625 5 -10.15625 C 6.519531 -10.15625 7.703125 -9.675781 8.546875 -8.71875 C 9.390625 -7.769531 9.8125 -6.523438 9.8125 -4.984375 Z M 7.796875 -4.9375 C 7.796875 -5.414062 7.75 -5.867188 7.65625 -6.296875 C 7.5625 -6.734375 7.414062 -7.148438 7.21875 -7.546875 C 7.019531 -7.953125 6.726562 -8.269531 6.34375 -8.5 C 5.96875 -8.738281 5.523438 -8.859375 5.015625 -8.859375 C 4.515625 -8.859375 4.078125 -8.742188 3.703125 -8.515625 C 3.328125 -8.296875 3.039062 -8 2.84375 -7.625 C 2.644531 -7.25 2.5 -6.847656 2.40625 -6.421875 C 2.3125 -5.992188 2.265625 -5.546875 2.265625 -5.078125 C 2.265625 -4.585938 2.3125 -4.125 2.40625 -3.6875 C 2.5 -3.257812 2.644531 -2.847656 2.84375 -2.453125 C 3.039062 -2.054688 3.328125 -1.738281 3.703125 -1.5 C 4.085938 -1.269531 4.535156 -1.15625 5.046875 -1.15625 C 5.546875 -1.15625 5.984375 -1.265625 6.359375 -1.484375 C 6.734375 -1.703125 7.019531 -2 7.21875 -2.375 C 7.414062 -2.757812 7.5625 -3.160156 7.65625 -3.578125 C 7.75 -4.003906 7.796875 -4.457031 7.796875 -4.9375 Z M 7.796875 -4.9375 "/></g></g></g><g fill="#664d43" fill-opacity="1"><g transform="translate(166.510477, 230.264867)"><g><path d="M 8.8125 -3.796875 C 8.8125 -2.441406 8.453125 -1.441406 7.734375 -0.796875 C 7.015625 -0.160156 6.0625 0.15625 4.875 0.15625 C 3.601562 0.15625 2.628906 -0.179688 1.953125 -0.859375 C 1.273438 -1.546875 0.9375 -2.523438 0.9375 -3.796875 L 0.9375 -9.1875 L 0.71875 -10.015625 L 2.859375 -10.015625 L 2.859375 -3.34375 C 2.859375 -2.6875 3.054688 -2.15625 3.453125 -1.75 C 3.859375 -1.351562 4.394531 -1.15625 5.0625 -1.15625 C 5.738281 -1.15625 6.273438 -1.347656 6.671875 -1.734375 C 7.066406 -2.128906 7.265625 -2.664062 7.265625 -3.34375 L 7.265625 -10.015625 L 8.8125 -10.015625 Z M 8.8125 -3.796875 "/></g></g></g><g fill="#664d43" fill-opacity="1"><g transform="translate(180.16298, 230.264867)"><g><path d="M 7.71875 -8.65625 L 4.90625 -8.65625 L 4.90625 0 L 2.953125 0 L 2.953125 -8.65625 L 0.171875 -8.65625 L 0.171875 -10.015625 L 7.71875 -10.015625 Z M 7.71875 -8.65625 "/></g></g></g><g fill="#664d43" fill-opacity="1"><g transform="translate(192.052819, 230.264867)"><g><path d="M 2.796875 0 L 0.90625 0 L 0.90625 -9.171875 C 0.90625 -9.179688 0.890625 -9.25 0.859375 -9.375 C 0.828125 -9.507812 0.796875 -9.644531 0.765625 -9.78125 C 0.734375 -9.914062 0.71875 -9.992188 0.71875 -10.015625 L 2.796875 -10.015625 Z M 2.796875 0 "/></g></g></g><g fill="#664d43" fill-opacity="1"><g transform="translate(199.706799, 230.264867)"><g><path d="M 16.1875 2.234375 C 15.28125 2.535156 14.640625 2.726562 14.265625 2.8125 C 13.898438 2.90625 13.40625 2.953125 12.78125 2.953125 C 12.394531 2.953125 11.96875 2.898438 11.5 2.796875 C 11.03125 2.703125 10.515625 2.550781 9.953125 2.34375 C 9.398438 2.132812 8.941406 1.953125 8.578125 1.796875 C 8.210938 1.640625 7.707031 1.414062 7.0625 1.125 C 6.425781 0.832031 6.023438 0.648438 5.859375 0.578125 C 5.585938 0.453125 5.003906 0.296875 4.109375 0.109375 C 2.796875 -0.171875 1.828125 -0.765625 1.203125 -1.671875 C 0.578125 -2.585938 0.265625 -3.691406 0.265625 -4.984375 C 0.265625 -5.660156 0.363281 -6.304688 0.5625 -6.921875 C 0.757812 -7.535156 1.050781 -8.085938 1.4375 -8.578125 C 1.820312 -9.066406 2.320312 -9.453125 2.9375 -9.734375 C 3.5625 -10.023438 4.265625 -10.171875 5.046875 -10.171875 C 5.828125 -10.171875 6.523438 -10.023438 7.140625 -9.734375 C 7.765625 -9.453125 8.269531 -9.066406 8.65625 -8.578125 C 9.039062 -8.085938 9.328125 -7.535156 9.515625 -6.921875 C 9.710938 -6.304688 9.8125 -5.660156 9.8125 -4.984375 C 9.8125 -4.023438 9.609375 -3.128906 9.203125 -2.296875 C 8.804688 -1.472656 8.179688 -0.832031 7.328125 -0.375 L 7.5 -0.28125 C 8.226562 0.0703125 8.832031 0.359375 9.3125 0.578125 C 9.800781 0.796875 10.457031 1.03125 11.28125 1.28125 C 12.101562 1.539062 12.789062 1.671875 13.34375 1.671875 C 13.96875 1.671875 14.8125 1.507812 15.875 1.1875 Z M 7.8125 -4.984375 C 7.8125 -5.648438 7.722656 -6.265625 7.546875 -6.828125 C 7.367188 -7.390625 7.066406 -7.867188 6.640625 -8.265625 C 6.210938 -8.660156 5.679688 -8.859375 5.046875 -8.859375 C 4.421875 -8.859375 3.890625 -8.660156 3.453125 -8.265625 C 3.015625 -7.867188 2.707031 -7.382812 2.53125 -6.8125 C 2.363281 -6.25 2.28125 -5.632812 2.28125 -4.96875 C 2.28125 -4.300781 2.363281 -3.691406 2.53125 -3.140625 C 2.707031 -2.585938 3.015625 -2.117188 3.453125 -1.734375 C 3.890625 -1.347656 4.421875 -1.15625 5.046875 -1.15625 C 5.972656 -1.15625 6.664062 -1.523438 7.125 -2.265625 C 7.582031 -3.015625 7.8125 -3.921875 7.8125 -4.984375 Z M 7.8125 -4.984375 "/></g></g></g><g fill="#664d43" fill-opacity="1"><g transform="translate(213.769217, 230.264867)"><g><path d="M 8.8125 -3.796875 C 8.8125 -2.441406 8.453125 -1.441406 7.734375 -0.796875 C 7.015625 -0.160156 6.0625 0.15625 4.875 0.15625 C 3.601562 0.15625 2.628906 -0.179688 1.953125 -0.859375 C 1.273438 -1.546875 0.9375 -2.523438 0.9375 -3.796875 L 0.9375 -9.1875 L 0.71875 -10.015625 L 2.859375 -10.015625 L 2.859375 -3.34375 C 2.859375 -2.6875 3.054688 -2.15625 3.453125 -1.75 C 3.859375 -1.351562 4.394531 -1.15625 5.0625 -1.15625 C 5.738281 -1.15625 6.273438 -1.347656 6.671875 -1.734375 C 7.066406 -2.128906 7.265625 -2.664062 7.265625 -3.34375 L 7.265625 -10.015625 L 8.8125 -10.015625 Z M 8.8125 -3.796875 "/></g></g></g><g fill="#664d43" fill-opacity="1"><g transform="translate(227.421721, 230.264867)"><g><path d="M 7 0 L 0.921875 0 L 0.921875 -9.171875 L 0.71875 -10.015625 L 7 -10.015625 L 7 -8.65625 L 2.796875 -8.65625 L 2.796875 -5.828125 L 6.015625 -5.828125 L 6.015625 -4.46875 L 2.796875 -4.46875 L 2.796875 -1.359375 L 7 -1.359375 Z M 7 0 "/></g></g></g><g fill="#664d43" fill-opacity="1"><g transform="translate(179.812493, 165.579131)"><g><path d="M 19.46875 -11.15625 C 19.570312 -11.15625 19.65625 -11.117188 19.71875 -11.046875 C 19.789062 -10.972656 19.828125 -10.882812 19.828125 -10.78125 C 19.828125 -10.675781 19.789062 -10.585938 19.71875 -10.515625 C 19.644531 -10.441406 19.554688 -10.40625 19.453125 -10.40625 L 19.4375 -10.40625 C 17.445312 -10.476562 15.40625 -10.515625 13.3125 -10.515625 C 11.21875 -10.515625 9.117188 -10.46875 7.015625 -10.375 C 5.046875 -8.070312 3.109375 -5.722656 1.203125 -3.328125 C -0.703125 -0.941406 -2.53125 1.453125 -4.28125 3.859375 C -6.039062 6.273438 -7.679688 8.671875 -9.203125 11.046875 C -9.140625 11.148438 -9.15625 11.285156 -9.25 11.453125 C -9.570312 11.992188 -9.863281 12.265625 -10.125 12.265625 C -10.289062 12.265625 -10.40625 12.210938 -10.46875 12.109375 C -10.53125 12.003906 -10.535156 11.863281 -10.484375 11.6875 C -10.429688 11.5625 -10.363281 11.429688 -10.28125 11.296875 C -8.757812 8.898438 -7.117188 6.484375 -5.359375 4.046875 C -3.609375 1.617188 -1.78125 -0.800781 0.125 -3.21875 C 2.039062 -5.632812 3.988281 -8.007812 5.96875 -10.34375 C 3.96875 -10.25 2.003906 -10.117188 0.078125 -9.953125 C -1.835938 -9.796875 -3.664062 -9.601562 -5.40625 -9.375 L -5.46875 -9.375 C -5.570312 -9.375 -5.660156 -9.410156 -5.734375 -9.484375 C -5.804688 -9.554688 -5.84375 -9.648438 -5.84375 -9.765625 C -5.84375 -9.859375 -5.804688 -9.941406 -5.734375 -10.015625 C -5.671875 -10.085938 -5.597656 -10.128906 -5.515625 -10.140625 C -3.640625 -10.378906 -1.675781 -10.582031 0.375 -10.75 C 2.425781 -10.914062 4.515625 -11.039062 6.640625 -11.125 C 7.921875 -12.625 9.234375 -14.128906 10.578125 -15.640625 C 11.929688 -17.160156 13.316406 -18.6875 14.734375 -20.21875 C 14.796875 -20.300781 14.882812 -20.34375 15 -20.34375 C 15.101562 -20.34375 15.191406 -20.304688 15.265625 -20.234375 C 15.335938 -20.160156 15.375 -20.066406 15.375 -19.953125 C 15.375 -19.847656 15.34375 -19.765625 15.28125 -19.703125 C 14.03125 -18.347656 12.769531 -16.957031 11.5 -15.53125 C 10.226562 -14.101562 8.953125 -12.648438 7.671875 -11.171875 C 9.628906 -11.242188 11.597656 -11.28125 13.578125 -11.28125 C 15.566406 -11.28125 17.53125 -11.238281 19.46875 -11.15625 Z M 19.46875 -11.15625 "/></g></g></g><g fill="#664d43" fill-opacity="1"><g transform="translate(186.959179, 165.579131)"><g><path d="M 16.234375 -4.296875 C 16.328125 -4.296875 16.410156 -4.253906 16.484375 -4.171875 C 16.566406 -4.097656 16.609375 -4.007812 16.609375 -3.90625 C 16.609375 -3.769531 16.550781 -3.664062 16.4375 -3.59375 C 16.019531 -3.320312 15.546875 -3.035156 15.015625 -2.734375 C 14.484375 -2.441406 13.925781 -2.148438 13.34375 -1.859375 C 12.757812 -1.566406 12.164062 -1.285156 11.5625 -1.015625 C 10.96875 -0.753906 10.382812 -0.519531 9.8125 -0.3125 C 9.238281 -0.113281 8.703125 0.0390625 8.203125 0.15625 C 7.710938 0.28125 7.28125 0.34375 6.90625 0.34375 C 6.363281 0.34375 5.941406 0.210938 5.640625 -0.046875 C 5.347656 -0.304688 5.203125 -0.671875 5.203125 -1.140625 C 5.203125 -1.410156 5.253906 -1.695312 5.359375 -2 C 5.460938 -2.3125 5.570312 -2.609375 5.6875 -2.890625 C 5.78125 -3.117188 5.859375 -3.332031 5.921875 -3.53125 C 5.992188 -3.726562 6.046875 -3.914062 6.078125 -4.09375 C 6.085938 -4.164062 6.070312 -4.21875 6.03125 -4.25 C 6 -4.289062 5.945312 -4.304688 5.875 -4.296875 C 5.4375 -4.191406 4.785156 -3.8125 3.921875 -3.15625 C 3.066406 -2.507812 2.0625 -1.640625 0.90625 -0.546875 C 0.570312 -0.222656 0.25 0.0820312 -0.0625 0.375 C -0.375 0.675781 -0.664062 0.957031 -0.9375 1.21875 C -1 1.289062 -1.066406 1.359375 -1.140625 1.421875 C -1.210938 1.484375 -1.28125 1.550781 -1.34375 1.625 C -1.71875 2 -2.007812 2.28125 -2.21875 2.46875 C -2.425781 2.664062 -2.578125 2.796875 -2.671875 2.859375 C -2.765625 2.929688 -2.847656 2.96875 -2.921875 2.96875 C -3.054688 2.96875 -3.171875 2.921875 -3.265625 2.828125 C -3.367188 2.734375 -3.421875 2.617188 -3.421875 2.484375 C -3.421875 2.234375 -3.28125 1.847656 -3 1.328125 C -2.726562 0.804688 -2.34375 0.179688 -1.84375 -0.546875 C -1.34375 -1.285156 -0.753906 -2.097656 -0.078125 -2.984375 C 0.597656 -3.878906 1.335938 -4.828125 2.140625 -5.828125 C 2.953125 -6.835938 3.804688 -7.867188 4.703125 -8.921875 C 5.597656 -9.984375 6.515625 -11.039062 7.453125 -12.09375 C 8.390625 -13.15625 9.320312 -14.191406 10.25 -15.203125 C 11.1875 -16.222656 12.097656 -17.191406 12.984375 -18.109375 C 13.867188 -19.023438 14.707031 -19.863281 15.5 -20.625 C 16.289062 -21.394531 17.007812 -22.0625 17.65625 -22.625 C 18.300781 -23.1875 18.851562 -23.625 19.3125 -23.9375 C 19.78125 -24.25 20.125 -24.40625 20.34375 -24.40625 C 20.644531 -24.40625 20.875 -24.328125 21.03125 -24.171875 C 21.195312 -24.023438 21.28125 -23.804688 21.28125 -23.515625 C 21.28125 -23.210938 21.132812 -22.78125 20.84375 -22.21875 C 20.5625 -21.664062 20.148438 -21.019531 19.609375 -20.28125 C 19.078125 -19.539062 18.4375 -18.726562 17.6875 -17.84375 C 16.9375 -16.96875 16.097656 -16.046875 15.171875 -15.078125 C 14.242188 -14.117188 13.242188 -13.132812 12.171875 -12.125 C 11.109375 -11.125 9.988281 -10.128906 8.8125 -9.140625 C 7.644531 -8.148438 6.4375 -7.191406 5.1875 -6.265625 C 3.9375 -5.335938 2.671875 -4.46875 1.390625 -3.65625 C 0.628906 -2.675781 -0.0351562 -1.796875 -0.609375 -1.015625 C -1.179688 -0.234375 -1.640625 0.4375 -1.984375 1 C -2.046875 1.101562 -2.0625 1.160156 -2.03125 1.171875 C -2 1.179688 -1.945312 1.148438 -1.875 1.078125 C -1.5625 0.773438 -1.210938 0.4375 -0.828125 0.0625 C -0.441406 -0.3125 -0.0390625 -0.695312 0.375 -1.09375 C 1.800781 -2.4375 2.984375 -3.4375 3.921875 -4.09375 C 4.867188 -4.75 5.59375 -5.078125 6.09375 -5.078125 C 6.332031 -5.078125 6.519531 -5.003906 6.65625 -4.859375 C 6.789062 -4.722656 6.859375 -4.53125 6.859375 -4.28125 C 6.859375 -4.03125 6.804688 -3.757812 6.703125 -3.46875 C 6.597656 -3.175781 6.492188 -2.882812 6.390625 -2.59375 C 6.273438 -2.3125 6.175781 -2.046875 6.09375 -1.796875 C 6.007812 -1.554688 5.96875 -1.335938 5.96875 -1.140625 C 5.96875 -0.890625 6.039062 -0.707031 6.1875 -0.59375 C 6.34375 -0.476562 6.582031 -0.421875 6.90625 -0.421875 C 7.25 -0.421875 7.65625 -0.476562 8.125 -0.59375 C 8.59375 -0.707031 9.097656 -0.863281 9.640625 -1.0625 C 10.179688 -1.257812 10.738281 -1.484375 11.3125 -1.734375 C 11.882812 -1.984375 12.453125 -2.25 13.015625 -2.53125 C 13.585938 -2.820312 14.128906 -3.113281 14.640625 -3.40625 C 15.148438 -3.695312 15.613281 -3.972656 16.03125 -4.234375 C 16.113281 -4.273438 16.179688 -4.296875 16.234375 -4.296875 Z M 20.34375 -23.640625 C 20.15625 -23.640625 19.828125 -23.460938 19.359375 -23.109375 C 18.890625 -22.753906 18.300781 -22.253906 17.59375 -21.609375 C 16.882812 -20.960938 16.09375 -20.195312 15.21875 -19.3125 C 14.34375 -18.4375 13.40625 -17.460938 12.40625 -16.390625 C 11.40625 -15.328125 10.375 -14.203125 9.3125 -13.015625 C 8.25 -11.828125 7.179688 -10.609375 6.109375 -9.359375 C 5.035156 -8.109375 3.984375 -6.851562 2.953125 -5.59375 C 4.285156 -6.519531 5.585938 -7.492188 6.859375 -8.515625 C 8.140625 -9.535156 9.363281 -10.566406 10.53125 -11.609375 C 11.695312 -12.660156 12.785156 -13.695312 13.796875 -14.71875 C 14.804688 -15.75 15.722656 -16.726562 16.546875 -17.65625 C 17.378906 -18.582031 18.085938 -19.429688 18.671875 -20.203125 C 19.265625 -20.972656 19.71875 -21.640625 20.03125 -22.203125 C 20.351562 -22.773438 20.515625 -23.203125 20.515625 -23.484375 C 20.515625 -23.585938 20.457031 -23.640625 20.34375 -23.640625 Z M 20.34375 -23.640625 "/></g></g></g><g fill="#664d43" fill-opacity="1"><g transform="translate(202.098304, 165.579131)"><g><path d="M 10.90625 -4.296875 C 11.007812 -4.296875 11.097656 -4.253906 11.171875 -4.171875 C 11.253906 -4.097656 11.296875 -4.007812 11.296875 -3.90625 C 11.296875 -3.769531 11.238281 -3.671875 11.125 -3.609375 C 10.457031 -3.109375 9.742188 -2.65625 8.984375 -2.25 C 8.234375 -1.84375 7.484375 -1.484375 6.734375 -1.171875 C 5.984375 -0.859375 5.273438 -0.597656 4.609375 -0.390625 C 3.941406 -0.179688 3.347656 -0.0234375 2.828125 0.078125 C 2.304688 0.191406 1.894531 0.25 1.59375 0.25 C 0.84375 0.25 0.265625 0.113281 -0.140625 -0.15625 C -0.554688 -0.4375 -0.765625 -0.828125 -0.765625 -1.328125 C -0.765625 -1.660156 -0.675781 -2.015625 -0.5 -2.390625 C -0.332031 -2.765625 -0.101562 -3.128906 0.1875 -3.484375 C 0.476562 -3.835938 0.800781 -4.160156 1.15625 -4.453125 C 1.507812 -4.742188 1.867188 -4.972656 2.234375 -5.140625 C 2.609375 -5.316406 2.960938 -5.40625 3.296875 -5.40625 C 3.597656 -5.40625 3.835938 -5.328125 4.015625 -5.171875 C 4.191406 -5.023438 4.28125 -4.820312 4.28125 -4.5625 C 4.28125 -4.382812 4.21875 -4.207031 4.09375 -4.03125 C 3.96875 -3.863281 3.800781 -3.707031 3.59375 -3.5625 C 3.382812 -3.414062 3.160156 -3.300781 2.921875 -3.21875 C 2.679688 -3.132812 2.4375 -3.09375 2.1875 -3.09375 C 1.695312 -3.09375 1.304688 -3.15625 1.015625 -3.28125 C 0.703125 -2.9375 0.453125 -2.585938 0.265625 -2.234375 C 0.0859375 -1.890625 0 -1.585938 0 -1.328125 C 0 -0.785156 0.53125 -0.515625 1.59375 -0.515625 C 1.875 -0.515625 2.257812 -0.566406 2.75 -0.671875 C 3.238281 -0.773438 3.800781 -0.925781 4.4375 -1.125 C 5.070312 -1.320312 5.742188 -1.570312 6.453125 -1.875 C 7.171875 -2.175781 7.890625 -2.519531 8.609375 -2.90625 C 9.335938 -3.300781 10.03125 -3.738281 10.6875 -4.21875 C 10.738281 -4.269531 10.8125 -4.296875 10.90625 -4.296875 Z M 3.515625 -4.5625 C 3.515625 -4.59375 3.503906 -4.613281 3.484375 -4.625 C 3.460938 -4.644531 3.398438 -4.65625 3.296875 -4.65625 C 3.078125 -4.65625 2.820312 -4.585938 2.53125 -4.453125 C 2.25 -4.316406 1.957031 -4.125 1.65625 -3.875 C 1.800781 -3.851562 1.976562 -3.84375 2.1875 -3.84375 C 2.457031 -3.84375 2.691406 -3.882812 2.890625 -3.96875 C 3.085938 -4.0625 3.238281 -4.164062 3.34375 -4.28125 C 3.457031 -4.394531 3.515625 -4.488281 3.515625 -4.5625 Z M 3.515625 -4.5625 "/></g></g></g></svg>