<svg xmlns="http://www.w3.org/2000/svg" xmlns:xlink="http://www.w3.org/1999/xlink" width="500" zoomAndPan="magnify" viewBox="0 0 375 374.999991" height="500" preserveAspectRatio="xMidYMid meet" version="1.0"><defs><g/><clipPath id="5bb8e15d90"><path d="M 179 112.441406 L 260 112.441406 L 260 155 L 179 155 Z M 179 112.441406 " clip-rule="nonzero"/></clipPath><clipPath id="a2e3189f64"><path d="M 205 157 L 262.5 157 L 262.5 201.691406 L 205 201.691406 Z M 205 157 " clip-rule="nonzero"/></clipPath><clipPath id="182c1e40fd"><path d="M 112.5 116 L 202 116 L 202 201.691406 L 112.5 201.691406 Z M 112.5 116 " clip-rule="nonzero"/></clipPath><clipPath id="dd9da2cdd8"><rect x="0" width="175" y="0" height="30"/></clipPath></defs><rect x="-37.5" width="450" fill="#ffffff" y="-37.499999" height="449.999989" fill-opacity="1"/><rect x="-37.5" width="450" fill="#ffffff" y="-37.499999" height="449.999989" fill-opacity="1"/><g clip-path="url(#5bb8e15d90)"><path fill="#000000" d="M 217.90625 128.851562 C 227.746094 128.851562 236.410156 133.871094 241.472656 141.476562 L 259.699219 141.476562 C 253.367188 124.582031 237.046875 112.554688 217.90625 112.554688 C 201.355469 112.554688 186.90625 121.554688 179.210938 134.917969 L 189.796875 154.066406 C 191.296875 139.894531 203.308594 128.851562 217.90625 128.851562 " fill-opacity="1" fill-rule="nonzero"/></g><g clip-path="url(#a2e3189f64)"><path fill="#000000" d="M 215.589844 157.066406 L 215.589844 172.296875 L 241.707031 172.296875 C 236.679688 180.101562 227.898438 185.277344 217.90625 185.277344 C 213.441406 185.277344 209.21875 184.242188 205.464844 182.402344 L 216.042969 201.535156 C 216.664062 201.558594 217.285156 201.574219 217.90625 201.574219 C 242.539062 201.574219 262.511719 181.644531 262.511719 157.066406 L 215.589844 157.066406 " fill-opacity="1" fill-rule="nonzero"/></g><g clip-path="url(#182c1e40fd)"><path fill="#000000" d="M 112.488281 201.574219 L 167.128906 201.574219 L 167.128906 185.453125 L 139.808594 185.453125 L 153.46875 152.027344 L 180.828125 201.574219 L 201.128906 201.574219 L 153.113281 116.941406 L 112.488281 201.574219 " fill-opacity="1" fill-rule="nonzero"/></g><g fill="#000000" fill-opacity="1"><g transform="translate(157.402758, 260.073674)"><g><path d="M 5.078125 -8.21875 C 4.585938 -8.21875 4.144531 -8.128906 3.75 -7.953125 C 3.351562 -7.785156 3.015625 -7.539062 2.734375 -7.21875 C 2.453125 -6.894531 2.238281 -6.503906 2.09375 -6.046875 C 1.945312 -5.597656 1.875 -5.085938 1.875 -4.515625 C 1.875 -3.753906 1.988281 -3.09375 2.21875 -2.53125 C 2.457031 -1.976562 2.8125 -1.550781 3.28125 -1.25 C 3.757812 -0.945312 4.351562 -0.796875 5.0625 -0.796875 C 5.457031 -0.796875 5.832031 -0.828125 6.1875 -0.890625 C 6.539062 -0.960938 6.890625 -1.050781 7.234375 -1.15625 L 7.234375 -0.234375 C 6.898438 -0.117188 6.550781 -0.03125 6.1875 0.03125 C 5.832031 0.09375 5.40625 0.125 4.90625 0.125 C 3.988281 0.125 3.222656 -0.0625 2.609375 -0.4375 C 1.992188 -0.820312 1.53125 -1.359375 1.21875 -2.046875 C 0.914062 -2.742188 0.765625 -3.566406 0.765625 -4.515625 C 0.765625 -5.203125 0.859375 -5.828125 1.046875 -6.390625 C 1.242188 -6.953125 1.523438 -7.4375 1.890625 -7.84375 C 2.265625 -8.257812 2.71875 -8.578125 3.25 -8.796875 C 3.789062 -9.023438 4.40625 -9.140625 5.09375 -9.140625 C 5.550781 -9.140625 5.988281 -9.09375 6.40625 -9 C 6.832031 -8.914062 7.21875 -8.789062 7.5625 -8.625 L 7.140625 -7.734375 C 6.859375 -7.859375 6.546875 -7.96875 6.203125 -8.0625 C 5.859375 -8.164062 5.484375 -8.21875 5.078125 -8.21875 Z M 5.078125 -8.21875 "/></g></g></g><g fill="#000000" fill-opacity="1"><g transform="translate(165.984155, 260.073674)"><g><path d="M 3.671875 -9.015625 C 4.410156 -9.015625 5.019531 -8.921875 5.5 -8.734375 C 5.976562 -8.554688 6.335938 -8.28125 6.578125 -7.90625 C 6.816406 -7.53125 6.9375 -7.050781 6.9375 -6.46875 C 6.9375 -5.988281 6.847656 -5.585938 6.671875 -5.265625 C 6.503906 -4.953125 6.28125 -4.695312 6 -4.5 C 5.71875 -4.300781 5.421875 -4.148438 5.109375 -4.046875 L 7.578125 0 L 6.359375 0 L 4.15625 -3.765625 L 2.28125 -3.765625 L 2.28125 0 L 1.234375 0 L 1.234375 -9.015625 Z M 3.609375 -8.109375 L 2.28125 -8.109375 L 2.28125 -4.640625 L 3.71875 -4.640625 C 4.445312 -4.640625 4.984375 -4.789062 5.328125 -5.09375 C 5.679688 -5.394531 5.859375 -5.835938 5.859375 -6.421875 C 5.859375 -7.035156 5.671875 -7.46875 5.296875 -7.71875 C 4.929688 -7.976562 4.367188 -8.109375 3.609375 -8.109375 Z M 3.609375 -8.109375 "/></g></g></g><g fill="#000000" fill-opacity="1"><g transform="translate(174.405324, 260.073674)"><g><path d="M 6.25 0 L 1.234375 0 L 1.234375 -9.015625 L 6.25 -9.015625 L 6.25 -8.09375 L 2.28125 -8.09375 L 2.28125 -5.171875 L 6.015625 -5.171875 L 6.015625 -4.265625 L 2.28125 -4.265625 L 2.28125 -0.921875 L 6.25 -0.921875 Z M 6.25 0 "/></g></g></g><g fill="#000000" fill-opacity="1"><g transform="translate(182.05, 260.073674)"><g><path d="M 6.890625 0 L 5.78125 -2.859375 L 2.15625 -2.859375 L 1.0625 0 L 0 0 L 3.53125 -9.046875 L 4.46875 -9.046875 L 7.96875 0 Z M 5.46875 -3.796875 L 4.40625 -6.640625 C 4.382812 -6.710938 4.34375 -6.832031 4.28125 -7 C 4.226562 -7.164062 4.171875 -7.335938 4.109375 -7.515625 C 4.054688 -7.703125 4.007812 -7.847656 3.96875 -7.953125 C 3.9375 -7.785156 3.894531 -7.617188 3.84375 -7.453125 C 3.789062 -7.285156 3.742188 -7.128906 3.703125 -6.984375 C 3.660156 -6.847656 3.625 -6.734375 3.59375 -6.640625 L 2.515625 -3.796875 Z M 5.46875 -3.796875 "/></g></g></g><g fill="#000000" fill-opacity="1"><g transform="translate(190.662216, 260.073674)"><g><path d="M 4 0 L 2.953125 0 L 2.953125 -8.09375 L 0.109375 -8.09375 L 0.109375 -9.015625 L 6.828125 -9.015625 L 6.828125 -8.09375 L 4 -8.09375 Z M 4 0 "/></g></g></g><g fill="#000000" fill-opacity="1"><g transform="translate(198.245265, 260.073674)"><g><path d="M 1.234375 0 L 1.234375 -9.015625 L 2.28125 -9.015625 L 2.28125 0 Z M 1.234375 0 "/></g></g></g><g fill="#000000" fill-opacity="1"><g transform="translate(202.401885, 260.073674)"><g><path d="M 7.53125 -9.015625 L 4.296875 0 L 3.234375 0 L 0 -9.015625 L 1.09375 -9.015625 L 3.203125 -3.078125 C 3.285156 -2.835938 3.359375 -2.609375 3.421875 -2.390625 C 3.492188 -2.171875 3.554688 -1.960938 3.609375 -1.765625 C 3.671875 -1.566406 3.722656 -1.367188 3.765625 -1.171875 C 3.804688 -1.367188 3.851562 -1.566406 3.90625 -1.765625 C 3.957031 -1.972656 4.015625 -2.1875 4.078125 -2.40625 C 4.148438 -2.625 4.234375 -2.851562 4.328125 -3.09375 L 6.421875 -9.015625 Z M 7.53125 -9.015625 "/></g></g></g><g fill="#000000" fill-opacity="1"><g transform="translate(210.558066, 260.073674)"><g><path d="M 6.25 0 L 1.234375 0 L 1.234375 -9.015625 L 6.25 -9.015625 L 6.25 -8.09375 L 2.28125 -8.09375 L 2.28125 -5.171875 L 6.015625 -5.171875 L 6.015625 -4.265625 L 2.28125 -4.265625 L 2.28125 -0.921875 L 6.25 -0.921875 Z M 6.25 0 "/></g></g></g><g transform="matrix(1, 0, 0, 1, 100, 213)"><g clip-path="url(#dd9da2cdd8)"><g fill="#000000" fill-opacity="1"><g transform="translate(1.349744, 24.018502)"><g><path d="M 14.3125 0 L 13.546875 -2.59375 L 7.09375 -2.59375 L 6.3125 0 L 0.265625 0 L 6.984375 -18.421875 L 13.859375 -18.421875 L 20.578125 0 Z M 8.328125 -6.71875 L 12.3125 -6.71875 L 10.390625 -13.28125 L 10.28125 -13.28125 Z M 8.328125 -6.71875 "/></g></g></g><g fill="#000000" fill-opacity="1"><g transform="translate(22.708725, 24.018502)"><g><path d="M 11.234375 -18.734375 C 13.003906 -18.734375 14.59375 -18.460938 16 -17.921875 C 17.414062 -17.390625 18.535156 -16.601562 19.359375 -15.5625 C 20.191406 -14.519531 20.609375 -13.25 20.609375 -11.75 L 14.96875 -11.75 C 14.96875 -12.519531 14.625 -13.140625 13.9375 -13.609375 C 13.257812 -14.078125 12.441406 -14.3125 11.484375 -14.3125 C 10.085938 -14.3125 9.03125 -13.941406 8.3125 -13.203125 C 7.601562 -12.460938 7.25 -11.414062 7.25 -10.0625 L 7.25 -8.34375 C 7.25 -6.988281 7.601562 -5.941406 8.3125 -5.203125 C 9.03125 -4.460938 10.085938 -4.09375 11.484375 -4.09375 C 12.441406 -4.09375 13.257812 -4.316406 13.9375 -4.765625 C 14.625 -5.222656 14.96875 -5.8125 14.96875 -6.53125 L 10.78125 -6.53125 L 10.78125 -10.28125 L 20.609375 -10.28125 L 20.609375 0 L 17.5625 0 L 16.96875 -1.8125 C 15.289062 -0.382812 13.097656 0.328125 10.390625 0.328125 C 7.335938 0.328125 5.039062 -0.46875 3.5 -2.0625 C 1.96875 -3.664062 1.203125 -6.046875 1.203125 -9.203125 C 1.203125 -12.328125 2.070312 -14.695312 3.8125 -16.3125 C 5.550781 -17.925781 8.023438 -18.734375 11.234375 -18.734375 Z M 11.234375 -18.734375 "/></g></g></g><g fill="#000000" fill-opacity="1"><g transform="translate(45.539811, 24.018502)"><g/></g></g><g fill="#000000" fill-opacity="1"><g transform="translate(54.988144, 24.018502)"><g><path d="M 1.984375 -18.421875 L 7.890625 -18.421875 L 7.890625 -4.703125 L 17.34375 -4.703125 L 17.34375 0 L 1.984375 0 Z M 1.984375 -18.421875 "/></g></g></g><g fill="#000000" fill-opacity="1"><g transform="translate(73.376154, 24.018502)"><g><path d="M 1.984375 -18.421875 L 17.90625 -18.421875 L 17.90625 -14 L 7.890625 -14 L 7.890625 -11.453125 L 16.453125 -11.453125 L 16.453125 -7.234375 L 7.890625 -7.234375 L 7.890625 -4.421875 L 18.09375 -4.421875 L 18.09375 0 L 1.984375 0 Z M 1.984375 -18.421875 "/></g></g></g><g fill="#000000" fill-opacity="1"><g transform="translate(93.23627, 24.018502)"><g><path d="M 12.578125 -13.703125 L 12.578125 0 L 6.671875 0 L 6.671875 -13.703125 L 0.609375 -13.703125 L 0.609375 -18.421875 L 18.609375 -18.421875 L 18.609375 -13.703125 Z M 12.578125 -13.703125 "/></g></g></g><g fill="#000000" fill-opacity="1"><g transform="translate(113.096386, 24.018502)"><g><path d="M 12.578125 -13.703125 L 12.578125 0 L 6.671875 0 L 6.671875 -13.703125 L 0.609375 -13.703125 L 0.609375 -18.421875 L 18.609375 -18.421875 L 18.609375 -13.703125 Z M 12.578125 -13.703125 "/></g></g></g><g fill="#000000" fill-opacity="1"><g transform="translate(132.956502, 24.018502)"><g><path d="M 1.984375 -18.421875 L 17.90625 -18.421875 L 17.90625 -14 L 7.890625 -14 L 7.890625 -11.453125 L 16.453125 -11.453125 L 16.453125 -7.234375 L 7.890625 -7.234375 L 7.890625 -4.421875 L 18.09375 -4.421875 L 18.09375 0 L 1.984375 0 Z M 1.984375 -18.421875 "/></g></g></g><g fill="#000000" fill-opacity="1"><g transform="translate(152.816626, 24.018502)"><g><path d="M 19.453125 -12.765625 C 19.453125 -11.640625 19.148438 -10.617188 18.546875 -9.703125 C 17.941406 -8.796875 17.0625 -8.128906 15.90625 -7.703125 L 20 0 L 13.359375 0 L 10.09375 -6.71875 L 7.890625 -6.71875 L 7.890625 0 L 1.984375 0 L 1.984375 -18.421875 L 13.25 -18.421875 C 14.570312 -18.421875 15.703125 -18.164062 16.640625 -17.65625 C 17.578125 -17.144531 18.28125 -16.457031 18.75 -15.59375 C 19.21875 -14.726562 19.453125 -13.785156 19.453125 -12.765625 Z M 13.4375 -12.53125 C 13.4375 -13.007812 13.273438 -13.410156 12.953125 -13.734375 C 12.628906 -14.054688 12.238281 -14.21875 11.78125 -14.21875 L 7.890625 -14.21875 L 7.890625 -10.8125 L 11.78125 -10.8125 C 12.238281 -10.8125 12.628906 -10.972656 12.953125 -11.296875 C 13.273438 -11.628906 13.4375 -12.039062 13.4375 -12.53125 Z M 13.4375 -12.53125 "/></g></g></g></g></g></svg>