<svg xmlns="http://www.w3.org/2000/svg" xmlns:xlink="http://www.w3.org/1999/xlink" width="500" zoomAndPan="magnify" viewBox="0 0 375 374.999991" height="500" preserveAspectRatio="xMidYMid meet" version="1.0"><defs><g/><clipPath id="59638f264f"><rect x="0" width="116" y="0" height="104"/></clipPath><clipPath id="87cb7a6f52"><path d="M 4 0.238281 L 26 0.238281 L 26 59 L 4 59 Z M 4 0.238281 " clip-rule="nonzero"/></clipPath><clipPath id="6f45bcf4db"><path d="M 65 0.238281 L 102 0.238281 L 102 59 L 65 59 Z M 65 0.238281 " clip-rule="nonzero"/></clipPath><clipPath id="90121fc160"><rect x="0" width="126" y="0" height="81"/></clipPath></defs><rect x="-37.5" width="450" fill="#ffffff" y="-37.499999" height="449.999989" fill-opacity="1"/><rect x="-37.5" width="450" fill="#eeede9" y="-37.499999" height="449.999989" fill-opacity="1"/><g transform="matrix(1, 0, 0, 1, 189, 125)"><g clip-path="url(#59638f264f)"><g fill="#1b1b1b" fill-opacity="1"><g transform="translate(0.928791, 84.117932)"><g><path d="M 16.34375 0.21875 C 12.613281 0.21875 9.863281 -0.347656 8.09375 -1.484375 C 6.332031 -2.617188 5.238281 -3.988281 4.8125 -5.59375 C 4.382812 -7.195312 4.171875 -9.25 4.171875 -11.75 L 4.25 -53.078125 L 15.21875 -53.078125 L 15.21875 -14.015625 C 15.21875 -12.359375 15.296875 -11.117188 15.453125 -10.296875 C 15.617188 -9.472656 16.09375 -8.820312 16.875 -8.34375 C 17.65625 -7.875 18.894531 -7.640625 20.59375 -7.640625 C 21.488281 -7.640625 22.101562 -7.6875 22.4375 -7.78125 L 22.4375 -0.140625 C 20.3125 0.0976562 18.28125 0.21875 16.34375 0.21875 Z M 16.34375 0.21875 "/></g></g></g><g fill="#1b1b1b" fill-opacity="1"><g transform="translate(20.105683, 84.117932)"><g><path d="M 16.765625 0.640625 C 12.148438 0.640625 8.578125 -1.113281 6.046875 -4.625 C 3.523438 -8.144531 2.265625 -12.851562 2.265625 -18.75 C 2.265625 -24.695312 3.5625 -29.425781 6.15625 -32.9375 C 8.75 -36.457031 12.332031 -38.21875 16.90625 -38.21875 C 20.070312 -38.21875 22.503906 -37.519531 24.203125 -36.125 C 25.898438 -34.726562 27.078125 -33.328125 27.734375 -31.921875 L 28.3125 -31.921875 L 28.3125 -37.4375 L 39.421875 -37.4375 L 39.421875 0 L 28.3125 0 L 28.3125 -6.015625 L 27.734375 -6.015625 C 27.023438 -4.503906 25.8125 -3.015625 24.09375 -1.546875 C 22.375 -0.0859375 19.929688 0.640625 16.765625 0.640625 Z M 20.953125 -8.203125 C 23.453125 -8.203125 25.3125 -9.25 26.53125 -11.34375 C 27.757812 -13.445312 28.375 -15.941406 28.375 -18.828125 C 28.375 -21.648438 27.757812 -24.113281 26.53125 -26.21875 C 25.3125 -28.320312 23.453125 -29.375 20.953125 -29.375 C 18.347656 -29.375 16.445312 -28.347656 15.25 -26.296875 C 14.050781 -24.242188 13.453125 -21.773438 13.453125 -18.890625 C 13.453125 -15.960938 14.050781 -13.445312 15.25 -11.34375 C 16.445312 -9.25 18.347656 -8.203125 20.953125 -8.203125 Z M 20.953125 -8.203125 "/></g></g></g><g fill="#1b1b1b" fill-opacity="1"><g transform="translate(58.034891, 84.117932)"><g><path d="M 26.25 0.640625 C 23.132812 0.640625 20.726562 -0.0664062 19.03125 -1.484375 C 17.332031 -2.898438 16.082031 -4.410156 15.28125 -6.015625 L 14.71875 -6.015625 L 14.71875 0 L 3.609375 0 L 3.609375 -53.140625 L 14.71875 -53.140625 L 14.71875 -31.921875 L 15.28125 -31.921875 C 15.945312 -33.328125 17.140625 -34.726562 18.859375 -36.125 C 20.578125 -37.519531 23.019531 -38.21875 26.1875 -38.21875 C 30.851562 -38.21875 34.445312 -36.46875 36.96875 -32.96875 C 39.5 -29.476562 40.765625 -24.738281 40.765625 -18.75 C 40.765625 -12.851562 39.5 -8.144531 36.96875 -4.625 C 34.445312 -1.113281 30.875 0.640625 26.25 0.640625 Z M 22.15625 -8.0625 C 24.695312 -8.0625 26.566406 -9.125 27.765625 -11.25 C 28.972656 -13.375 29.578125 -15.875 29.578125 -18.75 C 29.578125 -21.625 28.972656 -24.085938 27.765625 -26.140625 C 26.566406 -28.191406 24.695312 -29.21875 22.15625 -29.21875 C 19.601562 -29.21875 17.722656 -28.179688 16.515625 -26.109375 C 15.316406 -24.035156 14.71875 -21.582031 14.71875 -18.75 C 14.71875 -15.875 15.332031 -13.375 16.5625 -11.25 C 17.789062 -9.125 19.65625 -8.0625 22.15625 -8.0625 Z M 22.15625 -8.0625 "/></g></g></g><g fill="#1b1b1b" fill-opacity="1"><g transform="translate(95.681052, 84.117932)"><g><path d="M 11.890625 0.640625 C 10.140625 0.640625 8.695312 0.0507812 7.5625 -1.125 C 6.4375 -2.3125 5.875 -3.753906 5.875 -5.453125 C 5.875 -7.148438 6.4375 -8.578125 7.5625 -9.734375 C 8.695312 -10.890625 10.140625 -11.46875 11.890625 -11.46875 C 13.628906 -11.46875 15.078125 -10.890625 16.234375 -9.734375 C 17.390625 -8.578125 17.96875 -7.148438 17.96875 -5.453125 C 17.96875 -3.753906 17.378906 -2.3125 16.203125 -1.125 C 15.023438 0.0507812 13.585938 0.640625 11.890625 0.640625 Z M 11.890625 0.640625 "/></g></g></g></g></g><g fill="#1b1b1b" fill-opacity="1"><g transform="translate(163.003279, 335.401267)"><g><path d="M 2.796875 0.078125 C 2.296875 0.078125 1.859375 -0.0195312 1.484375 -0.21875 C 1.117188 -0.414062 0.84375 -0.671875 0.65625 -0.984375 C 0.46875 -1.304688 0.375 -1.644531 0.375 -2 L 0.375 -2.0625 L 1.90625 -2.0625 L 1.90625 -2 C 1.90625 -1.789062 1.984375 -1.59375 2.140625 -1.40625 C 2.296875 -1.226562 2.523438 -1.140625 2.828125 -1.140625 C 3.085938 -1.140625 3.296875 -1.203125 3.453125 -1.328125 C 3.609375 -1.460938 3.6875 -1.640625 3.6875 -1.859375 C 3.6875 -2.054688 3.613281 -2.210938 3.46875 -2.328125 C 3.332031 -2.441406 3.164062 -2.519531 2.96875 -2.5625 L 2.25 -2.703125 C 1.832031 -2.804688 1.4375 -2.988281 1.0625 -3.25 C 0.695312 -3.507812 0.515625 -3.941406 0.515625 -4.546875 C 0.515625 -4.929688 0.609375 -5.265625 0.796875 -5.546875 C 0.992188 -5.828125 1.257812 -6.039062 1.59375 -6.1875 C 1.925781 -6.34375 2.304688 -6.421875 2.734375 -6.421875 C 3.222656 -6.421875 3.644531 -6.328125 4 -6.140625 C 4.351562 -5.960938 4.617188 -5.722656 4.796875 -5.421875 C 4.972656 -5.128906 5.0625 -4.816406 5.0625 -4.484375 L 5.0625 -4.453125 L 3.53125 -4.453125 L 3.53125 -4.46875 C 3.53125 -4.664062 3.460938 -4.84375 3.328125 -5 C 3.191406 -5.164062 2.976562 -5.25 2.6875 -5.25 C 2.457031 -5.25 2.273438 -5.1875 2.140625 -5.0625 C 2.003906 -4.9375 1.9375 -4.773438 1.9375 -4.578125 C 1.9375 -4.378906 2.007812 -4.222656 2.15625 -4.109375 C 2.3125 -3.992188 2.492188 -3.914062 2.703125 -3.875 L 3.421875 -3.703125 C 3.898438 -3.609375 4.304688 -3.414062 4.640625 -3.125 C 4.972656 -2.84375 5.140625 -2.4375 5.140625 -1.90625 C 5.140625 -1.507812 5.035156 -1.160156 4.828125 -0.859375 C 4.628906 -0.554688 4.351562 -0.320312 4 -0.15625 C 3.644531 0 3.242188 0.078125 2.796875 0.078125 Z M 2.796875 0.078125 "/></g></g></g><g fill="#1b1b1b" fill-opacity="1"><g transform="translate(168.025324, 335.401267)"><g><path d="M 0.53125 -6.296875 L 1.9375 -6.296875 L 1.9375 0 L 0.53125 0 Z M 0.53125 -6.296875 "/></g></g></g><g fill="#1b1b1b" fill-opacity="1"><g transform="translate(170.095354, 335.401267)"><g><path d="M 0.46875 -6.296875 L 2.09375 -6.296875 L 4.40625 -2.15625 L 4.421875 -2.15625 L 4.421875 -6.296875 L 5.8125 -6.296875 L 5.8125 0.015625 L 4.171875 0.015625 L 1.875 -3.984375 L 1.859375 -3.984375 L 1.859375 0.015625 L 0.46875 0.015625 Z M 0.46875 -6.296875 "/></g></g></g><g fill="#1b1b1b" fill-opacity="1"><g transform="translate(175.882402, 335.401267)"><g><path d="M 3.234375 0.078125 C 2.628906 0.078125 2.109375 -0.0664062 1.671875 -0.359375 C 1.234375 -0.660156 0.898438 -1.054688 0.671875 -1.546875 C 0.453125 -2.046875 0.34375 -2.585938 0.34375 -3.171875 C 0.34375 -3.753906 0.453125 -4.289062 0.671875 -4.78125 C 0.898438 -5.28125 1.234375 -5.675781 1.671875 -5.96875 C 2.109375 -6.269531 2.628906 -6.421875 3.234375 -6.421875 C 3.972656 -6.421875 4.570312 -6.203125 5.03125 -5.765625 C 5.5 -5.335938 5.804688 -4.785156 5.953125 -4.109375 L 4.59375 -4.109375 C 4.519531 -4.421875 4.363281 -4.679688 4.125 -4.890625 C 3.882812 -5.097656 3.59375 -5.203125 3.25 -5.203125 C 2.769531 -5.203125 2.40625 -5.015625 2.15625 -4.640625 C 1.914062 -4.265625 1.796875 -3.773438 1.796875 -3.171875 C 1.796875 -2.566406 1.914062 -2.078125 2.15625 -1.703125 C 2.40625 -1.328125 2.769531 -1.140625 3.25 -1.140625 C 3.59375 -1.140625 3.878906 -1.238281 4.109375 -1.4375 C 4.335938 -1.644531 4.492188 -1.890625 4.578125 -2.171875 L 5.90625 -2.171875 C 5.78125 -1.515625 5.484375 -0.972656 5.015625 -0.546875 C 4.546875 -0.128906 3.953125 0.078125 3.234375 0.078125 Z M 3.234375 0.078125 "/></g></g></g><g fill="#1b1b1b" fill-opacity="1"><g transform="translate(181.642454, 335.401267)"><g><path d="M 1.875 -5.078125 L 1.875 -3.734375 L 4.28125 -3.734375 L 4.28125 -2.640625 L 1.875 -2.640625 L 1.875 -1.21875 L 4.71875 -1.21875 L 4.71875 0 L 0.46875 0 L 0.46875 -6.296875 L 4.71875 -6.296875 L 4.71875 -5.078125 Z M 1.875 -5.078125 "/></g></g></g><g fill="#1b1b1b" fill-opacity="1"><g transform="translate(186.241502, 335.401267)"><g/></g></g><g fill="#1b1b1b" fill-opacity="1"><g transform="translate(187.816529, 335.401267)"><g><path d="M 0.5 -1.1875 L 1.328125 -1.90625 C 1.421875 -1.976562 1.507812 -2.050781 1.59375 -2.125 C 1.6875 -2.195312 1.773438 -2.265625 1.859375 -2.328125 C 2.265625 -2.648438 2.570312 -2.910156 2.78125 -3.109375 C 3 -3.304688 3.175781 -3.515625 3.3125 -3.734375 C 3.457031 -3.953125 3.53125 -4.175781 3.53125 -4.40625 C 3.53125 -4.632812 3.457031 -4.828125 3.3125 -4.984375 C 3.175781 -5.148438 2.96875 -5.234375 2.6875 -5.234375 C 2.332031 -5.234375 2.097656 -5.128906 1.984375 -4.921875 C 1.867188 -4.710938 1.8125 -4.5 1.8125 -4.28125 L 1.8125 -4.15625 L 0.4375 -4.15625 C 0.4375 -4.632812 0.53125 -5.046875 0.71875 -5.390625 C 0.914062 -5.734375 1.179688 -5.992188 1.515625 -6.171875 C 1.847656 -6.347656 2.226562 -6.4375 2.65625 -6.4375 C 3.113281 -6.4375 3.503906 -6.347656 3.828125 -6.171875 C 4.160156 -6.003906 4.410156 -5.773438 4.578125 -5.484375 C 4.753906 -5.191406 4.84375 -4.859375 4.84375 -4.484375 C 4.84375 -4.140625 4.769531 -3.828125 4.625 -3.546875 C 4.488281 -3.265625 4.320312 -3.019531 4.125 -2.8125 C 3.925781 -2.613281 3.671875 -2.382812 3.359375 -2.125 L 3.15625 -1.96875 L 2.328125 -1.265625 L 2.328125 -1.21875 L 4.890625 -1.21875 L 4.890625 0 L 0.5 0 Z M 0.5 -1.1875 "/></g></g></g><g fill="#1b1b1b" fill-opacity="1"><g transform="translate(192.70358, 335.401267)"><g><path d="M 2.8125 0.140625 C 1.96875 0.140625 1.34375 -0.128906 0.9375 -0.671875 C 0.53125 -1.210938 0.328125 -1.929688 0.328125 -2.828125 L 0.328125 -3.484375 C 0.328125 -4.378906 0.53125 -5.09375 0.9375 -5.625 C 1.34375 -6.15625 1.96875 -6.421875 2.8125 -6.421875 C 3.644531 -6.421875 4.265625 -6.15625 4.671875 -5.625 C 5.078125 -5.09375 5.28125 -4.378906 5.28125 -3.484375 L 5.28125 -2.828125 C 5.28125 -1.929688 5.078125 -1.210938 4.671875 -0.671875 C 4.265625 -0.128906 3.644531 0.140625 2.8125 0.140625 Z M 2.8125 -1.078125 C 3.132812 -1.078125 3.363281 -1.21875 3.5 -1.5 C 3.632812 -1.78125 3.703125 -2.195312 3.703125 -2.75 L 3.703125 -3.578125 C 3.703125 -4.117188 3.632812 -4.523438 3.5 -4.796875 C 3.363281 -5.078125 3.132812 -5.21875 2.8125 -5.21875 C 2.488281 -5.21875 2.253906 -5.078125 2.109375 -4.796875 C 1.972656 -4.523438 1.90625 -4.117188 1.90625 -3.578125 L 1.90625 -2.75 C 1.90625 -2.195312 1.972656 -1.78125 2.109375 -1.5 C 2.253906 -1.21875 2.488281 -1.078125 2.8125 -1.078125 Z M 2.8125 -1.078125 "/></g></g></g><g fill="#1b1b1b" fill-opacity="1"><g transform="translate(197.851624, 335.401267)"><g><path d="M 0.5 -1.1875 L 1.328125 -1.90625 C 1.421875 -1.976562 1.507812 -2.050781 1.59375 -2.125 C 1.6875 -2.195312 1.773438 -2.265625 1.859375 -2.328125 C 2.265625 -2.648438 2.570312 -2.910156 2.78125 -3.109375 C 3 -3.304688 3.175781 -3.515625 3.3125 -3.734375 C 3.457031 -3.953125 3.53125 -4.175781 3.53125 -4.40625 C 3.53125 -4.632812 3.457031 -4.828125 3.3125 -4.984375 C 3.175781 -5.148438 2.96875 -5.234375 2.6875 -5.234375 C 2.332031 -5.234375 2.097656 -5.128906 1.984375 -4.921875 C 1.867188 -4.710938 1.8125 -4.5 1.8125 -4.28125 L 1.8125 -4.15625 L 0.4375 -4.15625 C 0.4375 -4.632812 0.53125 -5.046875 0.71875 -5.390625 C 0.914062 -5.734375 1.179688 -5.992188 1.515625 -6.171875 C 1.847656 -6.347656 2.226562 -6.4375 2.65625 -6.4375 C 3.113281 -6.4375 3.503906 -6.347656 3.828125 -6.171875 C 4.160156 -6.003906 4.410156 -5.773438 4.578125 -5.484375 C 4.753906 -5.191406 4.84375 -4.859375 4.84375 -4.484375 C 4.84375 -4.140625 4.769531 -3.828125 4.625 -3.546875 C 4.488281 -3.265625 4.320312 -3.019531 4.125 -2.8125 C 3.925781 -2.613281 3.671875 -2.382812 3.359375 -2.125 L 3.15625 -1.96875 L 2.328125 -1.265625 L 2.328125 -1.21875 L 4.890625 -1.21875 L 4.890625 0 L 0.5 0 Z M 0.5 -1.1875 "/></g></g></g><g fill="#1b1b1b" fill-opacity="1"><g transform="translate(202.738674, 335.401267)"><g><path d="M 2.8125 0.140625 C 1.96875 0.140625 1.34375 -0.128906 0.9375 -0.671875 C 0.53125 -1.210938 0.328125 -1.929688 0.328125 -2.828125 L 0.328125 -3.484375 C 0.328125 -4.378906 0.53125 -5.09375 0.9375 -5.625 C 1.34375 -6.15625 1.96875 -6.421875 2.8125 -6.421875 C 3.644531 -6.421875 4.265625 -6.15625 4.671875 -5.625 C 5.078125 -5.09375 5.28125 -4.378906 5.28125 -3.484375 L 5.28125 -2.828125 C 5.28125 -1.929688 5.078125 -1.210938 4.671875 -0.671875 C 4.265625 -0.128906 3.644531 0.140625 2.8125 0.140625 Z M 2.8125 -1.078125 C 3.132812 -1.078125 3.363281 -1.21875 3.5 -1.5 C 3.632812 -1.78125 3.703125 -2.195312 3.703125 -2.75 L 3.703125 -3.578125 C 3.703125 -4.117188 3.632812 -4.523438 3.5 -4.796875 C 3.363281 -5.078125 3.132812 -5.21875 2.8125 -5.21875 C 2.488281 -5.21875 2.253906 -5.078125 2.109375 -4.796875 C 1.972656 -4.523438 1.90625 -4.117188 1.90625 -3.578125 L 1.90625 -2.75 C 1.90625 -2.195312 1.972656 -1.78125 2.109375 -1.5 C 2.253906 -1.21875 2.488281 -1.078125 2.8125 -1.078125 Z M 2.8125 -1.078125 "/></g></g></g><g transform="matrix(1, 0, 0, 1, 67, 150)"><g clip-path="url(#90121fc160)"><g clip-path="url(#87cb7a6f52)"><g fill="#1b1b1b" fill-opacity="1"><g transform="translate(0.92597, 57.785221)"><g><path d="M 11.140625 -8.984375 C 10.765625 -7.703125 10.484375 -6.671875 10.296875 -5.890625 C 10.117188 -5.117188 10.03125 -4.460938 10.03125 -3.921875 C 10.03125 -3.554688 10.117188 -3.28125 10.296875 -3.09375 C 10.484375 -2.90625 10.660156 -2.8125 10.828125 -2.8125 C 11.460938 -2.8125 12.554688 -3.582031 14.109375 -5.125 C 15.660156 -6.675781 16.625 -7.773438 17 -8.421875 L 18.28125 -7.703125 C 16.570312 -5.347656 14.703125 -3.3125 12.671875 -1.59375 C 10.640625 0.113281 8.738281 0.96875 6.96875 0.96875 C 4.832031 0.96875 3.765625 -0.289062 3.765625 -2.8125 C 3.765625 -3.820312 3.976562 -5.078125 4.40625 -6.578125 C 4.832031 -8.078125 5.128906 -9.066406 5.296875 -9.546875 L 16.671875 -49.15625 C 16.992188 -50.382812 17.15625 -51.347656 17.15625 -52.046875 C 17.15625 -52.734375 16.914062 -53.289062 16.4375 -53.71875 C 15.957031 -54.144531 15.34375 -54.359375 14.59375 -54.359375 C 13.582031 -54.359375 12.675781 -54.28125 11.875 -54.125 L 11.875 -55.65625 L 23.65625 -57.5 L 25.015625 -57.5 L 12.1875 -12.59375 C 11.65625 -10.664062 11.304688 -9.460938 11.140625 -8.984375 Z M 11.140625 -8.984375 "/></g></g></g></g><g fill="#1b1b1b" fill-opacity="1"><g transform="translate(17.043414, 57.785221)"><g><path d="M 19.078125 -52.6875 C 20.203125 -52.6875 21.164062 -52.285156 21.96875 -51.484375 C 22.769531 -50.679688 23.171875 -49.742188 23.171875 -48.671875 C 23.171875 -47.546875 22.769531 -46.582031 21.96875 -45.78125 C 21.164062 -44.976562 20.203125 -44.578125 19.078125 -44.578125 C 18.015625 -44.578125 17.082031 -44.976562 16.28125 -45.78125 C 15.476562 -46.582031 15.078125 -47.546875 15.078125 -48.671875 C 15.078125 -49.742188 15.476562 -50.679688 16.28125 -51.484375 C 17.082031 -52.285156 18.015625 -52.6875 19.078125 -52.6875 Z M 11.21875 -7.140625 C 10.789062 -5.742188 10.578125 -4.78125 10.578125 -4.25 C 10.578125 -3.394531 11.035156 -2.96875 11.953125 -2.96875 C 12.585938 -2.96875 13.476562 -3.460938 14.625 -4.453125 C 15.78125 -5.441406 16.972656 -6.898438 18.203125 -8.828125 L 19.484375 -8.015625 C 17.722656 -5.285156 15.742188 -3.101562 13.546875 -1.46875 C 11.359375 0.15625 9.351562 0.96875 7.53125 0.96875 C 6.46875 0.96875 5.65625 0.617188 5.09375 -0.078125 C 4.53125 -0.773438 4.25 -1.710938 4.25 -2.890625 C 4.25 -3.742188 4.410156 -4.734375 4.734375 -5.859375 L 11.140625 -27.90625 C 11.515625 -29.238281 11.703125 -30.175781 11.703125 -30.71875 C 11.703125 -31.40625 11.460938 -32.015625 10.984375 -32.546875 C 10.503906 -33.085938 9.785156 -33.359375 8.828125 -33.359375 C 8.453125 -33.359375 7.4375 -33.222656 5.78125 -32.953125 L 6.171875 -34.3125 L 18.359375 -36.640625 L 19.71875 -36.640625 Z M 11.21875 -7.140625 "/></g></g></g><g fill="#1b1b1b" fill-opacity="1"><g transform="translate(33.160858, 57.785221)"><g><path d="M 23.25 -36.640625 C 25.820312 -36.640625 28.203125 -35.863281 30.390625 -34.3125 L 40.96875 -34.3125 L 39.6875 -29.90625 L 33.28125 -29.90625 C 33.757812 -28.625 34 -27.34375 34 -26.0625 C 34 -23.757812 33.316406 -21.550781 31.953125 -19.4375 C 30.585938 -17.332031 28.6875 -15.609375 26.25 -14.265625 C 23.820312 -12.929688 21.085938 -12.210938 18.046875 -12.109375 C 16.597656 -11.628906 15.269531 -11 14.0625 -10.21875 C 12.863281 -9.445312 12.265625 -8.6875 12.265625 -7.9375 C 12.265625 -7.1875 12.742188 -6.609375 13.703125 -6.203125 C 14.671875 -5.804688 16.597656 -5.234375 19.484375 -4.484375 C 19.859375 -4.429688 20.421875 -4.300781 21.171875 -4.09375 C 28.335938 -2.320312 31.921875 0.617188 31.921875 4.734375 C 31.921875 6.921875 31.15625 8.894531 29.625 10.65625 C 28.101562 12.425781 26.003906 13.832031 23.328125 14.875 C 20.660156 15.914062 17.671875 16.4375 14.359375 16.4375 C 10.128906 16.4375 6.554688 15.675781 3.640625 14.15625 C 0.734375 12.632812 -0.71875 10.585938 -0.71875 8.015625 C -0.71875 7.265625 -0.554688 6.515625 -0.234375 5.765625 C 0.078125 5.023438 0.925781 4 2.3125 2.6875 C 3.707031 1.375 5.847656 -0.1875 8.734375 -2 C 7.453125 -2.851562 6.8125 -3.925781 6.8125 -5.21875 C 6.8125 -6.65625 7.425781 -7.878906 8.65625 -8.890625 C 9.882812 -9.910156 11.863281 -11.171875 14.59375 -12.671875 C 12.03125 -13.472656 10.007812 -14.675781 8.53125 -16.28125 C 7.0625 -17.882812 6.328125 -19.890625 6.328125 -22.296875 C 6.328125 -24.960938 7.15625 -27.390625 8.8125 -29.578125 C 10.476562 -31.773438 12.617188 -33.5 15.234375 -34.75 C 17.859375 -36.007812 20.53125 -36.640625 23.25 -36.640625 Z M 13.078125 -20.203125 C 13.078125 -18.867188 13.515625 -17.503906 14.390625 -16.109375 C 15.273438 -14.722656 16.597656 -14.03125 18.359375 -14.03125 C 20.179688 -14.03125 21.769531 -14.859375 23.125 -16.515625 C 24.488281 -18.171875 25.53125 -20.1875 26.25 -22.5625 C 26.976562 -24.945312 27.34375 -27.15625 27.34375 -29.1875 C 27.34375 -30.789062 26.953125 -32.097656 26.171875 -33.109375 C 25.398438 -34.128906 24.238281 -34.640625 22.6875 -34.640625 C 20.5 -34.640625 18.679688 -33.753906 17.234375 -31.984375 C 15.796875 -30.222656 14.742188 -28.191406 14.078125 -25.890625 C 13.410156 -23.597656 13.078125 -21.703125 13.078125 -20.203125 Z M 4.015625 7.453125 C 4.015625 9.597656 5.109375 11.3125 7.296875 12.59375 C 9.484375 13.875 12.023438 14.515625 14.921875 14.515625 C 16.628906 14.515625 18.414062 14.257812 20.28125 13.75 C 22.15625 13.238281 23.757812 12.4375 25.09375 11.34375 C 26.4375 10.25 27.109375 8.875 27.109375 7.21875 C 27.109375 5.9375 26.582031 4.851562 25.53125 3.96875 C 24.488281 3.082031 23.242188 2.382812 21.796875 1.875 C 20.359375 1.375 18.382812 0.800781 15.875 0.15625 C 13.207031 -0.476562 11.335938 -1.007812 10.265625 -1.4375 C 8.335938 -0.0507812 6.8125 1.304688 5.6875 2.640625 C 4.570312 3.984375 4.015625 5.585938 4.015625 7.453125 Z M 4.015625 7.453125 "/></g></g></g><g clip-path="url(#6f45bcf4db)"><g fill="#1b1b1b" fill-opacity="1"><g transform="translate(64.193401, 57.785221)"><g><path d="M 23.578125 -57.5 L 12.265625 -18.125 L 12.421875 -17.96875 C 15.953125 -23.738281 19.425781 -28.289062 22.84375 -31.625 C 26.269531 -34.96875 29.398438 -36.640625 32.234375 -36.640625 C 33.253906 -36.640625 34.226562 -36.195312 35.15625 -35.3125 C 36.09375 -34.4375 36.5625 -33.273438 36.5625 -31.828125 C 36.5625 -30.117188 36.1875 -27.957031 35.4375 -25.34375 L 30.71875 -9.0625 C 30.34375 -7.832031 30.070312 -6.867188 29.90625 -6.171875 C 29.75 -5.472656 29.671875 -4.882812 29.671875 -4.40625 C 29.671875 -3.925781 29.765625 -3.578125 29.953125 -3.359375 C 30.140625 -3.148438 30.335938 -3.046875 30.546875 -3.046875 C 31.140625 -3.046875 32.0625 -3.695312 33.3125 -5 C 34.570312 -6.3125 35.601562 -7.53125 36.40625 -8.65625 L 37.609375 -7.78125 C 36.210938 -5.695312 34.445312 -3.71875 32.3125 -1.84375 C 30.175781 0.03125 28.226562 0.96875 26.46875 0.96875 C 25.5 0.96875 24.734375 0.617188 24.171875 -0.078125 C 23.609375 -0.773438 23.328125 -1.578125 23.328125 -2.484375 C 23.328125 -3.710938 23.625 -5.289062 24.21875 -7.21875 L 29.03125 -24.0625 C 29.832031 -26.675781 30.234375 -28.492188 30.234375 -29.515625 C 30.234375 -30.316406 30.03125 -30.957031 29.625 -31.4375 C 29.226562 -31.914062 28.734375 -32.15625 28.140625 -32.15625 C 26.484375 -32.15625 24.382812 -30.859375 21.84375 -28.265625 C 19.3125 -25.671875 16.65625 -22.207031 13.875 -17.875 C 12.050781 -14.9375 10.632812 -11.757812 9.625 -8.34375 L 7.140625 0 L 1.125 0 L 13.625 -43.546875 C 14.375 -46.054688 14.910156 -47.925781 15.234375 -49.15625 C 15.554688 -50.382812 15.71875 -51.320312 15.71875 -51.96875 C 15.71875 -52.925781 15.367188 -53.523438 14.671875 -53.765625 C 13.972656 -54.003906 12.820312 -54.125 11.21875 -54.125 L 11.21875 -55.5625 L 22.21875 -57.5 Z M 23.578125 -57.5 "/></g></g></g></g><g fill="#1b1b1b" fill-opacity="1"><g transform="translate(98.674229, 57.785221)"><g><path d="M 21.8125 -45.546875 L 23.328125 -45.546875 L 20.53125 -35.765625 L 26.140625 -35.765625 L 25.5 -33.28125 L 19.8125 -33.28125 L 12.671875 -8.34375 C 12.023438 -6.195312 11.703125 -4.753906 11.703125 -4.015625 C 11.703125 -3.046875 12.101562 -2.5625 12.90625 -2.5625 C 13.601562 -2.5625 14.457031 -2.945312 15.46875 -3.71875 C 16.488281 -4.5 17.4375 -5.367188 18.3125 -6.328125 C 19.195312 -7.296875 19.664062 -7.882812 19.71875 -8.09375 L 21.25 -8.09375 C 19.164062 -4.78125 17.082031 -2.441406 15 -1.078125 C 12.914062 0.285156 11.015625 0.96875 9.296875 0.96875 C 8.390625 0.96875 7.5625 0.617188 6.8125 -0.078125 C 6.0625 -0.773438 5.6875 -1.84375 5.6875 -3.28125 C 5.6875 -4.25 6.007812 -5.9375 6.65625 -8.34375 L 13.796875 -33.28125 L 7.78125 -33.28125 L 8.34375 -35.046875 C 11.5 -35.578125 14.078125 -36.789062 16.078125 -38.6875 C 18.078125 -40.582031 19.988281 -42.867188 21.8125 -45.546875 Z M 21.8125 -45.546875 "/></g></g></g></g></g></svg>