<svg xmlns="http://www.w3.org/2000/svg" xmlns:xlink="http://www.w3.org/1999/xlink" width="500" zoomAndPan="magnify" viewBox="0 0 375 374.999991" height="500" preserveAspectRatio="xMidYMid meet" version="1.0"><defs><g/><clipPath id="aad5c73326"><rect x="0" width="206" y="0" height="39"/></clipPath><clipPath id="a91d219292"><rect x="0" width="124" y="0" height="26"/></clipPath><clipPath id="d6cae7fbf5"><path d="M 113 104.960938 L 262.246094 104.960938 L 262.246094 200.210938 L 113 200.210938 Z M 113 104.960938 " clip-rule="nonzero"/></clipPath></defs><rect x="-37.5" width="450" fill="#ffffff" y="-37.499999" height="449.999989" fill-opacity="1"/><rect x="-37.5" width="450" fill="#f7ba01" y="-37.499999" height="449.999989" fill-opacity="1"/><g transform="matrix(1, 0, 0, 1, 85, 206)"><g clip-path="url(#aad5c73326)"><g fill="#000000" fill-opacity="1"><g transform="translate(0.542071, 30.98595)"><g><path d="M 6.703125 -4.09375 L 12.15625 -4.09375 L 12.15625 0 L 1.765625 0 L 1.765625 -22.8125 L 12.15625 -22.8125 L 12.15625 -18.78125 L 6.703125 -18.78125 L 6.703125 -13.4375 L 11.8125 -13.4375 L 11.8125 -9.546875 L 6.703125 -9.546875 Z M 6.703125 -4.09375 "/></g></g></g><g fill="#000000" fill-opacity="1"><g transform="translate(14.499284, 30.98595)"><g><path d="M 14.84375 0 L 9.90625 0 L 9.90625 -18.921875 C 9.90625 -19.117188 9.835938 -19.285156 9.703125 -19.421875 C 9.578125 -19.566406 9.421875 -19.640625 9.234375 -19.640625 L 7.328125 -19.640625 C 7.140625 -19.640625 6.976562 -19.566406 6.84375 -19.421875 C 6.71875 -19.285156 6.65625 -19.117188 6.65625 -18.921875 L 6.65625 0 L 1.734375 0 L 1.734375 -18.5 C 1.734375 -21.601562 3.1875 -23.15625 6.09375 -23.15625 L 10.46875 -23.15625 C 13.382812 -23.15625 14.84375 -21.601562 14.84375 -18.5 Z M 14.84375 0 "/></g></g></g><g fill="#000000" fill-opacity="1"><g transform="translate(31.593311, 30.98595)"><g><path d="M 0.453125 -18.609375 L 0.453125 -22.8125 L 12.796875 -22.8125 L 12.796875 -18.609375 L 9.09375 -18.609375 L 9.09375 0 L 4.15625 0 L 4.15625 -18.609375 Z M 0.453125 -18.609375 "/></g></g></g><g fill="#000000" fill-opacity="1"><g transform="translate(45.585761, 30.98595)"><g><path d="M 6.703125 -4.09375 L 12.15625 -4.09375 L 12.15625 0 L 1.765625 0 L 1.765625 -22.8125 L 12.15625 -22.8125 L 12.15625 -18.78125 L 6.703125 -18.78125 L 6.703125 -13.4375 L 11.8125 -13.4375 L 11.8125 -9.546875 L 6.703125 -9.546875 Z M 6.703125 -4.09375 "/></g></g></g><g fill="#000000" fill-opacity="1"><g transform="translate(59.542974, 30.98595)"><g><path d="M 6.703125 -9.34375 L 6.703125 0 L 1.765625 0 L 1.765625 -22.8125 L 10.546875 -22.8125 C 13.453125 -22.8125 14.90625 -21.257812 14.90625 -18.15625 L 14.90625 -15.515625 C 14.90625 -13.628906 14.238281 -12.429688 12.90625 -11.921875 C 14.070312 -11.492188 14.65625 -10.53125 14.65625 -9.03125 L 14.65625 0 L 9.734375 0 L 9.734375 -8.640625 C 9.734375 -9.109375 9.507812 -9.34375 9.0625 -9.34375 Z M 6.703125 -19.453125 L 6.703125 -12.796875 L 9.3125 -12.796875 C 9.5 -12.796875 9.65625 -12.863281 9.78125 -13 C 9.90625 -13.144531 9.96875 -13.3125 9.96875 -13.5 L 9.96875 -18.75 C 9.96875 -18.9375 9.90625 -19.097656 9.78125 -19.234375 C 9.65625 -19.378906 9.5 -19.453125 9.3125 -19.453125 Z M 6.703125 -19.453125 "/></g></g></g><g fill="#000000" fill-opacity="1"><g transform="translate(76.566506, 30.98595)"><g><path d="M 0.453125 -18.609375 L 0.453125 -22.8125 L 12.796875 -22.8125 L 12.796875 -18.609375 L 9.09375 -18.609375 L 9.09375 0 L 4.15625 0 L 4.15625 -18.609375 Z M 0.453125 -18.609375 "/></g></g></g><g fill="#000000" fill-opacity="1"><g transform="translate(90.558956, 30.98595)"><g><path d="M 10.828125 -23.15625 C 13.734375 -23.15625 15.1875 -21.601562 15.1875 -18.5 L 15.1875 0 L 10.25 0 L 10.25 -7.65625 L 6.703125 -7.65625 L 6.703125 0 L 1.765625 0 L 1.765625 -18.5 C 1.765625 -21.601562 3.222656 -23.15625 6.140625 -23.15625 Z M 6.703125 -11.453125 L 10.25 -11.453125 L 10.25 -19.109375 C 10.25 -19.296875 10.1875 -19.457031 10.0625 -19.59375 C 9.9375 -19.738281 9.78125 -19.8125 9.59375 -19.8125 L 7.375 -19.8125 C 7.175781 -19.8125 7.015625 -19.738281 6.890625 -19.59375 C 6.765625 -19.457031 6.703125 -19.296875 6.703125 -19.109375 Z M 6.703125 -11.453125 "/></g></g></g><g fill="#000000" fill-opacity="1"><g transform="translate(108.357883, 30.98595)"><g><path d="M 6.703125 -22.8125 L 6.703125 0 L 1.765625 0 L 1.765625 -22.8125 Z M 6.703125 -22.8125 "/></g></g></g><g fill="#000000" fill-opacity="1"><g transform="translate(117.662731, 30.98595)"><g><path d="M 14.84375 0 L 9.90625 0 L 9.90625 -18.921875 C 9.90625 -19.117188 9.835938 -19.285156 9.703125 -19.421875 C 9.578125 -19.566406 9.421875 -19.640625 9.234375 -19.640625 L 7.328125 -19.640625 C 7.140625 -19.640625 6.976562 -19.566406 6.84375 -19.421875 C 6.71875 -19.285156 6.65625 -19.117188 6.65625 -18.921875 L 6.65625 0 L 1.734375 0 L 1.734375 -18.5 C 1.734375 -21.601562 3.1875 -23.15625 6.09375 -23.15625 L 10.46875 -23.15625 C 13.382812 -23.15625 14.84375 -21.601562 14.84375 -18.5 Z M 14.84375 0 "/></g></g></g><g fill="#000000" fill-opacity="1"><g transform="translate(134.756758, 30.98595)"><g><path d="M 6.65625 0 L 1.734375 0 L 1.734375 -18.5 C 1.734375 -21.601562 3.1875 -23.15625 6.09375 -23.15625 L 8.703125 -23.15625 C 10.421875 -23.15625 11.644531 -22.59375 12.375 -21.46875 C 13.050781 -22.59375 14.269531 -23.15625 16.03125 -23.15625 L 18.640625 -23.15625 C 21.554688 -23.15625 23.015625 -21.601562 23.015625 -18.5 L 23.015625 0 L 18.078125 0 L 18.078125 -18.921875 C 18.078125 -19.117188 18.015625 -19.285156 17.890625 -19.421875 C 17.765625 -19.566406 17.601562 -19.640625 17.40625 -19.640625 L 15.515625 -19.640625 C 15.328125 -19.640625 15.164062 -19.566406 15.03125 -19.421875 C 14.90625 -19.285156 14.84375 -19.117188 14.84375 -18.921875 L 14.84375 0 L 9.90625 0 L 9.90625 -18.921875 C 9.90625 -19.117188 9.835938 -19.285156 9.703125 -19.421875 C 9.578125 -19.566406 9.421875 -19.640625 9.234375 -19.640625 L 7.328125 -19.640625 C 7.140625 -19.640625 6.976562 -19.566406 6.84375 -19.421875 C 6.71875 -19.285156 6.65625 -19.117188 6.65625 -18.921875 Z M 6.65625 0 "/></g></g></g><g fill="#000000" fill-opacity="1"><g transform="translate(160.098144, 30.98595)"><g><path d="M 6.703125 -4.09375 L 12.15625 -4.09375 L 12.15625 0 L 1.765625 0 L 1.765625 -22.8125 L 12.15625 -22.8125 L 12.15625 -18.78125 L 6.703125 -18.78125 L 6.703125 -13.4375 L 11.8125 -13.4375 L 11.8125 -9.546875 L 6.703125 -9.546875 Z M 6.703125 -4.09375 "/></g></g></g><g fill="#000000" fill-opacity="1"><g transform="translate(174.055357, 30.98595)"><g><path d="M 14.84375 0 L 9.90625 0 L 9.90625 -18.921875 C 9.90625 -19.117188 9.835938 -19.285156 9.703125 -19.421875 C 9.578125 -19.566406 9.421875 -19.640625 9.234375 -19.640625 L 7.328125 -19.640625 C 7.140625 -19.640625 6.976562 -19.566406 6.84375 -19.421875 C 6.71875 -19.285156 6.65625 -19.117188 6.65625 -18.921875 L 6.65625 0 L 1.734375 0 L 1.734375 -18.5 C 1.734375 -21.601562 3.1875 -23.15625 6.09375 -23.15625 L 10.46875 -23.15625 C 13.382812 -23.15625 14.84375 -21.601562 14.84375 -18.5 Z M 14.84375 0 "/></g></g></g><g fill="#000000" fill-opacity="1"><g transform="translate(191.149384, 30.98595)"><g><path d="M 0.453125 -18.609375 L 0.453125 -22.8125 L 12.796875 -22.8125 L 12.796875 -18.609375 L 9.09375 -18.609375 L 9.09375 0 L 4.15625 0 L 4.15625 -18.609375 Z M 0.453125 -18.609375 "/></g></g></g></g></g><g transform="matrix(1, 0, 0, 1, 126, 241)"><g clip-path="url(#a91d219292)"><g fill="#000000" fill-opacity="1"><g transform="translate(1.317591, 20.910057)"><g><path d="M 6.46875 -7.203125 C 8.414062 -7.203125 9.390625 -6.164062 9.390625 -4.09375 L 9.390625 -2.875 C 9.390625 -0.800781 8.414062 0.234375 6.46875 0.234375 L 3.859375 0.234375 C 1.910156 0.234375 0.9375 -0.800781 0.9375 -2.875 L 0.9375 -3.59375 L 3.859375 -3.59375 L 3.859375 -2.5625 C 3.859375 -2.4375 3.898438 -2.328125 3.984375 -2.234375 C 4.078125 -2.140625 4.1875 -2.09375 4.3125 -2.09375 L 6.234375 -2.09375 C 6.359375 -2.09375 6.460938 -2.140625 6.546875 -2.234375 C 6.640625 -2.328125 6.6875 -2.4375 6.6875 -2.5625 L 6.6875 -3.984375 C 6.6875 -4.109375 6.640625 -4.21875 6.546875 -4.3125 C 6.460938 -4.40625 6.359375 -4.453125 6.234375 -4.453125 L 3.8125 -4.453125 C 1.863281 -4.453125 0.890625 -5.484375 0.890625 -7.546875 L 0.890625 -8.609375 C 0.890625 -10.679688 1.863281 -11.71875 3.8125 -11.71875 L 6.28125 -11.71875 C 8.226562 -11.71875 9.203125 -10.679688 9.203125 -8.609375 L 9.203125 -8.1875 L 6.28125 -8.1875 L 6.28125 -8.921875 C 6.28125 -9.046875 6.238281 -9.15625 6.15625 -9.25 C 6.070312 -9.34375 5.960938 -9.390625 5.828125 -9.390625 L 4.046875 -9.390625 C 3.921875 -9.390625 3.8125 -9.34375 3.71875 -9.25 C 3.632812 -9.15625 3.59375 -9.046875 3.59375 -8.921875 L 3.59375 -7.671875 C 3.59375 -7.546875 3.632812 -7.4375 3.71875 -7.34375 C 3.8125 -7.25 3.921875 -7.203125 4.046875 -7.203125 Z M 6.46875 -7.203125 "/></g></g></g><g fill="#000000" fill-opacity="1"><g transform="translate(11.975082, 20.910057)"><g><path d="M 5.25 -1.8125 L 6.1875 -1.8125 L 6.1875 0.234375 L 3.984375 0.234375 C 2.035156 0.234375 1.0625 -0.800781 1.0625 -2.875 L 1.0625 -13.984375 L 4.21875 -13.984375 L 4.21875 -11.484375 L 6.1875 -11.484375 L 6.1875 -9.203125 L 4.21875 -9.203125 L 4.21875 -2.9375 C 4.21875 -2.5 4.300781 -2.203125 4.46875 -2.046875 C 4.644531 -1.890625 4.90625 -1.8125 5.25 -1.8125 Z M 5.25 -1.8125 "/></g></g></g><g fill="#000000" fill-opacity="1"><g transform="translate(19.221333, 20.910057)"><g><path d="M 6.40625 -11.484375 L 9.546875 -11.484375 L 9.546875 0 L 6.6875 0 L 6.6875 -0.59375 C 6.195312 -0.0390625 5.457031 0.234375 4.46875 0.234375 L 3.984375 0.234375 C 2.035156 0.234375 1.0625 -0.800781 1.0625 -2.875 L 1.0625 -11.484375 L 4.21875 -11.484375 L 4.21875 -2.5 C 4.21875 -2.375 4.257812 -2.265625 4.34375 -2.171875 C 4.425781 -2.078125 4.53125 -2.03125 4.65625 -2.03125 L 5.953125 -2.03125 C 6.078125 -2.03125 6.179688 -2.078125 6.265625 -2.171875 C 6.359375 -2.265625 6.40625 -2.375 6.40625 -2.5 Z M 6.40625 -11.484375 "/></g></g></g><g fill="#000000" fill-opacity="1"><g transform="translate(30.325828, 20.910057)"><g><path d="M 4.46875 -11.71875 C 5.269531 -11.71875 5.914062 -11.53125 6.40625 -11.15625 L 6.40625 -15.21875 L 9.546875 -15.21875 L 9.546875 0 L 6.890625 0 L 6.890625 -0.84375 C 6.410156 -0.125 5.601562 0.234375 4.46875 0.234375 L 3.984375 0.234375 C 2.035156 0.234375 1.0625 -0.800781 1.0625 -2.875 L 1.0625 -8.609375 C 1.0625 -10.679688 2.035156 -11.71875 3.984375 -11.71875 Z M 6.40625 -2.5 L 6.40625 -8.984375 C 6.40625 -9.109375 6.359375 -9.21875 6.265625 -9.3125 C 6.179688 -9.40625 6.078125 -9.453125 5.953125 -9.453125 L 4.65625 -9.453125 C 4.53125 -9.453125 4.425781 -9.40625 4.34375 -9.3125 C 4.257812 -9.21875 4.21875 -9.109375 4.21875 -8.984375 L 4.21875 -2.5 C 4.21875 -2.375 4.257812 -2.265625 4.34375 -2.171875 C 4.425781 -2.078125 4.53125 -2.03125 4.65625 -2.03125 L 5.953125 -2.03125 C 6.078125 -2.03125 6.179688 -2.078125 6.265625 -2.171875 C 6.359375 -2.265625 6.40625 -2.375 6.40625 -2.5 Z M 6.40625 -2.5 "/></g></g></g><g fill="#000000" fill-opacity="1"><g transform="translate(41.430323, 20.910057)"><g><path d="M 4.265625 -12.90625 C 3.929688 -12.582031 3.53125 -12.421875 3.0625 -12.421875 C 2.59375 -12.421875 2.179688 -12.585938 1.828125 -12.921875 C 1.484375 -13.265625 1.3125 -13.675781 1.3125 -14.15625 C 1.3125 -14.632812 1.484375 -15.039062 1.828125 -15.375 C 2.179688 -15.71875 2.59375 -15.890625 3.0625 -15.890625 C 3.53125 -15.890625 3.929688 -15.71875 4.265625 -15.375 C 4.609375 -15.039062 4.78125 -14.628906 4.78125 -14.140625 C 4.78125 -13.648438 4.609375 -13.238281 4.265625 -12.90625 Z M 1.484375 0 L 1.484375 -11.484375 L 4.640625 -11.484375 L 4.640625 0 Z M 1.484375 0 "/></g></g></g><g fill="#000000" fill-opacity="1"><g transform="translate(47.688486, 20.910057)"><g><path d="M 9.546875 -8.609375 L 9.546875 -2.875 C 9.546875 -0.800781 8.578125 0.234375 6.640625 0.234375 L 3.984375 0.234375 C 2.035156 0.234375 1.0625 -0.800781 1.0625 -2.875 L 1.0625 -8.609375 C 1.0625 -10.679688 2.035156 -11.71875 3.984375 -11.71875 L 6.640625 -11.71875 C 8.578125 -11.71875 9.546875 -10.679688 9.546875 -8.609375 Z M 6.40625 -2.21875 L 6.40625 -9.296875 C 6.40625 -9.421875 6.359375 -9.53125 6.265625 -9.625 C 6.179688 -9.71875 6.078125 -9.765625 5.953125 -9.765625 L 4.65625 -9.765625 C 4.53125 -9.765625 4.425781 -9.71875 4.34375 -9.625 C 4.257812 -9.53125 4.21875 -9.421875 4.21875 -9.296875 L 4.21875 -2.21875 C 4.21875 -2.09375 4.257812 -1.976562 4.34375 -1.875 C 4.425781 -1.78125 4.53125 -1.734375 4.65625 -1.734375 L 5.953125 -1.734375 C 6.078125 -1.734375 6.179688 -1.78125 6.265625 -1.875 C 6.359375 -1.976562 6.40625 -2.09375 6.40625 -2.21875 Z M 6.40625 -2.21875 "/></g></g></g><g fill="#000000" fill-opacity="1"><g transform="translate(58.792981, 20.910057)"><g/></g></g><g fill="#000000" fill-opacity="1"><g transform="translate(64.015994, 20.910057)"><g><path d="M 9.546875 -6.96875 L 6.40625 -6.96875 L 6.40625 -8.984375 C 6.40625 -9.109375 6.359375 -9.21875 6.265625 -9.3125 C 6.179688 -9.40625 6.078125 -9.453125 5.953125 -9.453125 L 4.65625 -9.453125 C 4.53125 -9.453125 4.425781 -9.40625 4.34375 -9.3125 C 4.257812 -9.21875 4.21875 -9.109375 4.21875 -8.984375 L 4.21875 -2.5 C 4.21875 -2.375 4.257812 -2.265625 4.34375 -2.171875 C 4.425781 -2.078125 4.53125 -2.03125 4.65625 -2.03125 L 5.953125 -2.03125 C 6.078125 -2.03125 6.179688 -2.078125 6.265625 -2.171875 C 6.359375 -2.265625 6.40625 -2.375 6.40625 -2.5 L 6.40625 -4.515625 L 9.546875 -4.515625 L 9.546875 -2.875 C 9.546875 -0.800781 8.578125 0.234375 6.640625 0.234375 L 3.984375 0.234375 C 2.035156 0.234375 1.0625 -0.800781 1.0625 -2.875 L 1.0625 -8.609375 C 1.0625 -10.679688 2.035156 -11.71875 3.984375 -11.71875 L 6.640625 -11.71875 C 8.578125 -11.71875 9.546875 -10.679688 9.546875 -8.609375 Z M 9.546875 -6.96875 "/></g></g></g><g fill="#000000" fill-opacity="1"><g transform="translate(74.979331, 20.910057)"><g><path d="M 6.640625 -11.71875 C 8.578125 -11.71875 9.546875 -10.679688 9.546875 -8.609375 L 9.546875 -4.890625 L 4.21875 -4.890625 L 4.21875 -2.5 C 4.21875 -2.375 4.257812 -2.265625 4.34375 -2.171875 C 4.425781 -2.078125 4.53125 -2.03125 4.65625 -2.03125 L 5.953125 -2.03125 C 6.078125 -2.03125 6.179688 -2.078125 6.265625 -2.171875 C 6.359375 -2.265625 6.40625 -2.375 6.40625 -2.5 L 6.40625 -3.765625 L 9.546875 -3.765625 L 9.546875 -2.875 C 9.546875 -0.800781 8.578125 0.234375 6.640625 0.234375 L 3.984375 0.234375 C 2.035156 0.234375 1.0625 -0.800781 1.0625 -2.875 L 1.0625 -8.609375 C 1.0625 -10.679688 2.035156 -11.71875 3.984375 -11.71875 Z M 4.21875 -6.96875 L 6.40625 -6.96875 L 6.40625 -9.078125 C 6.40625 -9.203125 6.359375 -9.3125 6.265625 -9.40625 C 6.179688 -9.5 6.078125 -9.546875 5.953125 -9.546875 L 4.65625 -9.546875 C 4.53125 -9.546875 4.425781 -9.5 4.34375 -9.40625 C 4.257812 -9.3125 4.21875 -9.203125 4.21875 -9.078125 Z M 4.21875 -6.96875 "/></g></g></g><g fill="#000000" fill-opacity="1"><g transform="translate(85.683884, 20.910057)"><g><path d="M 4.21875 0 L 1.0625 0 L 1.0625 -11.484375 L 3.9375 -11.484375 L 3.9375 -10.890625 C 4.414062 -11.441406 5.148438 -11.71875 6.140625 -11.71875 L 6.640625 -11.71875 C 8.578125 -11.71875 9.546875 -10.679688 9.546875 -8.609375 L 9.546875 0 L 6.40625 0 L 6.40625 -8.984375 C 6.40625 -9.109375 6.359375 -9.21875 6.265625 -9.3125 C 6.179688 -9.40625 6.078125 -9.453125 5.953125 -9.453125 L 4.65625 -9.453125 C 4.53125 -9.453125 4.425781 -9.40625 4.34375 -9.3125 C 4.257812 -9.21875 4.21875 -9.109375 4.21875 -8.984375 Z M 4.21875 0 "/></g></g></g><g fill="#000000" fill-opacity="1"><g transform="translate(96.788379, 20.910057)"><g><path d="M 5.25 -1.8125 L 6.1875 -1.8125 L 6.1875 0.234375 L 3.984375 0.234375 C 2.035156 0.234375 1.0625 -0.800781 1.0625 -2.875 L 1.0625 -13.984375 L 4.21875 -13.984375 L 4.21875 -11.484375 L 6.1875 -11.484375 L 6.1875 -9.203125 L 4.21875 -9.203125 L 4.21875 -2.9375 C 4.21875 -2.5 4.300781 -2.203125 4.46875 -2.046875 C 4.644531 -1.890625 4.90625 -1.8125 5.25 -1.8125 Z M 5.25 -1.8125 "/></g></g></g><g fill="#000000" fill-opacity="1"><g transform="translate(104.03463, 20.910057)"><g><path d="M 6.640625 -11.71875 C 8.578125 -11.71875 9.546875 -10.679688 9.546875 -8.609375 L 9.546875 -4.890625 L 4.21875 -4.890625 L 4.21875 -2.5 C 4.21875 -2.375 4.257812 -2.265625 4.34375 -2.171875 C 4.425781 -2.078125 4.53125 -2.03125 4.65625 -2.03125 L 5.953125 -2.03125 C 6.078125 -2.03125 6.179688 -2.078125 6.265625 -2.171875 C 6.359375 -2.265625 6.40625 -2.375 6.40625 -2.5 L 6.40625 -3.765625 L 9.546875 -3.765625 L 9.546875 -2.875 C 9.546875 -0.800781 8.578125 0.234375 6.640625 0.234375 L 3.984375 0.234375 C 2.035156 0.234375 1.0625 -0.800781 1.0625 -2.875 L 1.0625 -8.609375 C 1.0625 -10.679688 2.035156 -11.71875 3.984375 -11.71875 Z M 4.21875 -6.96875 L 6.40625 -6.96875 L 6.40625 -9.078125 C 6.40625 -9.203125 6.359375 -9.3125 6.265625 -9.40625 C 6.179688 -9.5 6.078125 -9.546875 5.953125 -9.546875 L 4.65625 -9.546875 C 4.53125 -9.546875 4.425781 -9.5 4.34375 -9.40625 C 4.257812 -9.3125 4.21875 -9.203125 4.21875 -9.078125 Z M 4.21875 -6.96875 "/></g></g></g><g fill="#000000" fill-opacity="1"><g transform="translate(114.739183, 20.910057)"><g><path d="M 5.953125 -11.71875 L 6.5625 -11.71875 L 6.5625 -8.65625 L 5.015625 -8.65625 C 4.484375 -8.65625 4.21875 -8.378906 4.21875 -7.828125 L 4.21875 0 L 1.0625 0 L 1.0625 -11.484375 L 3.9375 -11.484375 L 3.9375 -10.375 C 4.382812 -11.269531 5.054688 -11.71875 5.953125 -11.71875 Z M 5.953125 -11.71875 "/></g></g></g></g></g><g clip-path="url(#d6cae7fbf5)"><path fill="#000000" d="M 145.144531 156.777344 L 153.402344 161.550781 C 154.109375 161.957031 154.355469 162.875 153.945312 163.582031 L 149.175781 171.851562 C 148.769531 172.5625 147.855469 172.804688 147.148438 172.394531 L 138.886719 167.621094 C 138.175781 167.210938 137.929688 166.296875 138.34375 165.585938 L 143.113281 157.316406 C 143.519531 156.613281 144.433594 156.367188 145.144531 156.777344 M 154.890625 139.875 L 163.148438 144.648438 C 163.859375 145.058594 164.101562 145.972656 163.691406 146.683594 L 158.921875 154.949219 C 158.515625 155.660156 157.601562 155.90625 156.890625 155.496094 L 148.632812 150.722656 C 147.921875 150.3125 147.683594 149.398438 148.089844 148.6875 L 152.859375 140.417969 C 153.265625 139.710938 154.179688 139.46875 154.890625 139.875 Z M 164.632812 122.976562 L 172.890625 127.75 C 173.601562 128.15625 173.847656 129.074219 173.4375 129.78125 L 168.667969 138.050781 C 168.257812 138.761719 167.34375 139.003906 166.636719 138.59375 L 158.378906 133.824219 C 157.671875 133.414062 157.429688 132.5 157.835938 131.789062 L 162.605469 123.523438 C 163.011719 122.8125 163.929688 122.566406 164.632812 122.976562 Z M 230.371094 183.503906 L 238.628906 188.277344 C 239.335938 188.683594 239.578125 189.601562 239.175781 190.308594 L 234.40625 198.578125 C 234 199.289062 233.085938 199.535156 232.375 199.121094 L 224.117188 194.347656 C 223.40625 193.9375 223.160156 193.023438 223.574219 192.3125 L 228.339844 184.042969 C 228.746094 183.335938 229.660156 183.089844 230.371094 183.503906 Z M 240.117188 166.601562 L 248.375 171.375 C 249.085938 171.785156 249.328125 172.699219 248.921875 173.410156 L 244.152344 181.679688 C 243.746094 182.390625 242.832031 182.636719 242.125 182.226562 L 233.863281 177.453125 C 233.15625 177.042969 232.910156 176.128906 233.320312 175.417969 L 238.089844 167.148438 C 238.496094 166.4375 239.40625 166.191406 240.117188 166.601562 Z M 243.460938 148.585938 L 247.457031 150.898438 L 243.0625 158.515625 C 242.65625 159.226562 242.898438 160.140625 243.605469 160.550781 L 251.867188 165.324219 C 252.574219 165.734375 253.484375 165.492188 253.898438 164.78125 L 258.292969 157.160156 L 262.1875 159.414062 L 238.660156 200.207031 L 213.691406 200.207031 Z M 139.804688 188.101562 C 139.394531 188.8125 138.480469 189.054688 137.773438 188.644531 L 129.515625 183.871094 C 128.804688 183.460938 128.5625 182.546875 128.96875 181.835938 L 133.363281 174.214844 C 133.773438 173.511719 134.6875 173.265625 135.394531 173.671875 L 143.65625 178.445312 C 144.363281 178.855469 144.609375 179.769531 144.199219 180.480469 Z M 138.019531 200.203125 L 143.699219 190.355469 L 148.09375 182.734375 L 186.707031 115.785156 L 182.8125 113.535156 L 178.417969 121.152344 C 178.007812 121.859375 177.09375 122.105469 176.386719 121.695312 L 168.125 116.921875 C 167.421875 116.511719 167.171875 115.597656 167.582031 114.886719 L 171.976562 107.273438 L 167.980469 104.960938 L 129.367188 171.910156 L 124.972656 179.527344 L 113.050781 200.203125 L 119.210938 200.203125 C 118.96875 199.761719 118.953125 199.207031 119.222656 198.742188 L 123.992188 190.472656 C 124.398438 189.761719 125.316406 189.519531 126.023438 189.929688 L 134.28125 194.703125 C 134.992188 195.109375 135.238281 196.027344 134.828125 196.734375 L 132.824219 200.203125 Z M 150.074219 200.203125 L 152.742188 195.578125 L 157.136719 187.960938 L 168.429688 168.378906 C 169.980469 165.691406 173.445312 164.761719 176.132812 166.3125 L 205.035156 183.019531 C 207.722656 184.570312 208.652344 188.042969 207.097656 190.730469 L 201.636719 200.203125 Z M 234.417969 143.359375 L 218.734375 170.558594 C 217.183594 173.246094 213.714844 174.179688 211.027344 172.628906 L 182.125 155.921875 C 179.441406 154.371094 178.511719 150.898438 180.0625 148.210938 L 195.746094 121.007812 Z M 234.417969 143.359375 " fill-opacity="1" fill-rule="evenodd"/></g></svg>