<svg xmlns="http://www.w3.org/2000/svg" xmlns:xlink="http://www.w3.org/1999/xlink" width="500" zoomAndPan="magnify" viewBox="0 0 375 374.999991" height="500" preserveAspectRatio="xMidYMid meet" version="1.0"><defs><g/></defs><rect x="-37.5" width="450" fill="#ffffff" y="-37.499999" height="449.999989" fill-opacity="1"/><rect x="-37.5" width="450" fill="#ff3131" y="-37.499999" height="449.999989" fill-opacity="1"/><g fill="#000000" fill-opacity="1"><g transform="translate(65.308594, 209.215417)"><g><path d="M 1.265625 0 L 1.265625 -66.40625 L 39.015625 -66.40625 L 40.578125 -60.015625 L 44.875 -42.53125 L 46.484375 -42.671875 L 42.390625 -66.40625 L 73 -66.40625 L 73 0 L 35.203125 0 L 33.640625 -6 L 28.21875 -30.46875 L 26.609375 -30.46875 L 31.5 0 Z M 1.265625 0 "/></g></g></g><g fill="#000000" fill-opacity="1"><g transform="translate(139.573272, 209.215417)"><g><path d="M 1.265625 0 L 1.265625 -66.40625 L 37.203125 -66.40625 L 37.203125 0 Z M 1.265625 0 "/></g></g></g><g fill="#000000" fill-opacity="1"><g transform="translate(178.048329, 209.215417)"><g><path d="M 1.265625 0 L 1.265625 -66.40625 L 39.015625 -66.40625 L 40.578125 -60.015625 L 44.875 -42.53125 L 46.484375 -42.671875 L 42.390625 -66.40625 L 73 -66.40625 L 73 0 L 35.203125 0 L 33.640625 -6 L 28.21875 -30.46875 L 26.609375 -30.46875 L 31.5 0 Z M 1.265625 0 "/></g></g></g><g fill="#000000" fill-opacity="1"><g transform="translate(252.313006, 209.215417)"><g><path d="M 1.265625 0 L 1.265625 -66.40625 L 56 -66.40625 L 56 -43.3125 L 37.703125 -43.3125 L 37.703125 -40.96875 L 52.25 -40.96875 L 52.25 -24.703125 L 37.703125 -24.703125 L 37.703125 -22.40625 L 56.453125 -22.40625 L 56.453125 0 Z M 1.265625 0 "/></g></g></g><g fill="#ff3131" fill-opacity="1"><g transform="translate(123.33984, 214.499986)"><g><path d="M 10.90625 0 L 35.203125 -28.296875 C 33.796875 -27.492188 31.828125 -27.09375 29.296875 -27.09375 C 26.367188 -27.09375 23.40625 -27.707031 20.40625 -28.9375 C 17.40625 -30.175781 14.585938 -31.945312 11.953125 -34.25 C 9.316406 -36.550781 7.164062 -39.597656 5.5 -43.390625 C 3.832031 -47.191406 3 -51.394531 3 -56 C 3 -60.664062 3.878906 -64.847656 5.640625 -68.546875 C 7.410156 -72.242188 9.78125 -75.175781 12.75 -77.34375 C 15.71875 -79.507812 18.96875 -81.160156 22.5 -82.296875 C 26.03125 -83.429688 29.726562 -84 33.59375 -84 C 42.863281 -84 50.664062 -81.296875 57 -75.890625 C 63.332031 -70.492188 66.5 -63.863281 66.5 -56 C 66.5 -49.332031 65.566406 -43.847656 63.703125 -39.546875 C 61.835938 -35.242188 58.4375 -29.757812 53.5 -23.09375 L 34.09375 0 Z M 47 -56 C 47 -59.601562 45.832031 -62.585938 43.5 -64.953125 C 41.164062 -67.316406 38.164062 -68.5 34.5 -68.5 C 30.832031 -68.5 27.796875 -67.316406 25.390625 -64.953125 C 22.992188 -62.585938 21.796875 -59.601562 21.796875 -56 C 21.796875 -52.332031 23.007812 -49.28125 25.4375 -46.84375 C 27.875 -44.414062 30.894531 -43.203125 34.5 -43.203125 C 37.96875 -43.203125 40.914062 -44.414062 43.34375 -46.84375 C 45.78125 -49.28125 47 -52.332031 47 -56 Z M 47 -56 "/></g></g></g></svg>